%TF.GenerationSoftware,KiCad,Pcbnew,4.0.2+dfsg1-stable*%
%TF.CreationDate,2018-06-05T19:34:28+02:00*%
%TF.ProjectId,imp_meter,696D705F6D657465722E6B696361645F,rev?*%
%TF.FileFunction,Legend,Top*%
%FSLAX46Y46*%
G04 Gerber Fmt 4.6, Leading zero omitted, Abs format (unit mm)*
G04 Created by KiCad (PCBNEW 4.0.2+dfsg1-stable) date wto, 5 cze 2018, 19:34:28*
%MOMM*%
G01*
G04 APERTURE LIST*
%ADD10C,0.100000*%
%ADD11C,0.200000*%
%ADD12C,0.300000*%
%ADD13C,0.120000*%
%ADD14C,0.150000*%
%ADD15C,0.304800*%
%ADD16C,0.222250*%
G04 APERTURE END LIST*
D10*
D11*
X137408095Y-47456000D02*
X137303333Y-47403619D01*
X137146190Y-47403619D01*
X136989048Y-47456000D01*
X136884286Y-47560762D01*
X136831905Y-47665524D01*
X136779524Y-47875048D01*
X136779524Y-48032190D01*
X136831905Y-48241714D01*
X136884286Y-48346476D01*
X136989048Y-48451238D01*
X137146190Y-48503619D01*
X137250952Y-48503619D01*
X137408095Y-48451238D01*
X137460476Y-48398857D01*
X137460476Y-48032190D01*
X137250952Y-48032190D01*
X137931905Y-48503619D02*
X137931905Y-47403619D01*
X138560476Y-48503619D01*
X138560476Y-47403619D01*
X139084286Y-48503619D02*
X139084286Y-47403619D01*
X139346191Y-47403619D01*
X139503333Y-47456000D01*
X139608095Y-47560762D01*
X139660476Y-47665524D01*
X139712857Y-47875048D01*
X139712857Y-48032190D01*
X139660476Y-48241714D01*
X139608095Y-48346476D01*
X139503333Y-48451238D01*
X139346191Y-48503619D01*
X139084286Y-48503619D01*
X140446191Y-48870286D02*
X140446191Y-47298857D01*
X141231905Y-48084571D02*
X142070000Y-48084571D01*
X141650952Y-48503619D02*
X141650952Y-47665524D01*
X143170000Y-48503619D02*
X142541429Y-48503619D01*
X142855715Y-48503619D02*
X142855715Y-47403619D01*
X142750953Y-47560762D01*
X142646191Y-47665524D01*
X142541429Y-47717905D01*
X143589048Y-47508381D02*
X143641429Y-47456000D01*
X143746191Y-47403619D01*
X144008095Y-47403619D01*
X144112857Y-47456000D01*
X144165238Y-47508381D01*
X144217619Y-47613143D01*
X144217619Y-47717905D01*
X144165238Y-47875048D01*
X143536667Y-48503619D01*
X144217619Y-48503619D01*
X144531905Y-47403619D02*
X144898572Y-48503619D01*
X145265238Y-47403619D01*
D12*
X144277144Y-81844571D02*
X144277144Y-80344571D01*
X144991430Y-81844571D02*
X144991430Y-80844571D01*
X144991430Y-80987429D02*
X145062858Y-80916000D01*
X145205716Y-80844571D01*
X145420001Y-80844571D01*
X145562858Y-80916000D01*
X145634287Y-81058857D01*
X145634287Y-81844571D01*
X145634287Y-81058857D02*
X145705716Y-80916000D01*
X145848573Y-80844571D01*
X146062858Y-80844571D01*
X146205716Y-80916000D01*
X146277144Y-81058857D01*
X146277144Y-81844571D01*
X146991430Y-80844571D02*
X146991430Y-82344571D01*
X146991430Y-80916000D02*
X147134287Y-80844571D01*
X147420001Y-80844571D01*
X147562858Y-80916000D01*
X147634287Y-80987429D01*
X147705716Y-81130286D01*
X147705716Y-81558857D01*
X147634287Y-81701714D01*
X147562858Y-81773143D01*
X147420001Y-81844571D01*
X147134287Y-81844571D01*
X146991430Y-81773143D01*
X148920001Y-81773143D02*
X148777144Y-81844571D01*
X148491430Y-81844571D01*
X148348573Y-81773143D01*
X148277144Y-81630286D01*
X148277144Y-81058857D01*
X148348573Y-80916000D01*
X148491430Y-80844571D01*
X148777144Y-80844571D01*
X148920001Y-80916000D01*
X148991430Y-81058857D01*
X148991430Y-81201714D01*
X148277144Y-81344571D01*
X150277144Y-81844571D02*
X150277144Y-80344571D01*
X150277144Y-81773143D02*
X150134287Y-81844571D01*
X149848573Y-81844571D01*
X149705715Y-81773143D01*
X149634287Y-81701714D01*
X149562858Y-81558857D01*
X149562858Y-81130286D01*
X149634287Y-80987429D01*
X149705715Y-80916000D01*
X149848573Y-80844571D01*
X150134287Y-80844571D01*
X150277144Y-80916000D01*
X151634287Y-81844571D02*
X151634287Y-81058857D01*
X151562858Y-80916000D01*
X151420001Y-80844571D01*
X151134287Y-80844571D01*
X150991430Y-80916000D01*
X151634287Y-81773143D02*
X151491430Y-81844571D01*
X151134287Y-81844571D01*
X150991430Y-81773143D01*
X150920001Y-81630286D01*
X150920001Y-81487429D01*
X150991430Y-81344571D01*
X151134287Y-81273143D01*
X151491430Y-81273143D01*
X151634287Y-81201714D01*
X152348573Y-80844571D02*
X152348573Y-81844571D01*
X152348573Y-80987429D02*
X152420001Y-80916000D01*
X152562859Y-80844571D01*
X152777144Y-80844571D01*
X152920001Y-80916000D01*
X152991430Y-81058857D01*
X152991430Y-81844571D01*
X154348573Y-81773143D02*
X154205716Y-81844571D01*
X153920002Y-81844571D01*
X153777144Y-81773143D01*
X153705716Y-81701714D01*
X153634287Y-81558857D01*
X153634287Y-81130286D01*
X153705716Y-80987429D01*
X153777144Y-80916000D01*
X153920002Y-80844571D01*
X154205716Y-80844571D01*
X154348573Y-80916000D01*
X155562858Y-81773143D02*
X155420001Y-81844571D01*
X155134287Y-81844571D01*
X154991430Y-81773143D01*
X154920001Y-81630286D01*
X154920001Y-81058857D01*
X154991430Y-80916000D01*
X155134287Y-80844571D01*
X155420001Y-80844571D01*
X155562858Y-80916000D01*
X155634287Y-81058857D01*
X155634287Y-81201714D01*
X154920001Y-81344571D01*
X157420001Y-81844571D02*
X157420001Y-80844571D01*
X157420001Y-80987429D02*
X157491429Y-80916000D01*
X157634287Y-80844571D01*
X157848572Y-80844571D01*
X157991429Y-80916000D01*
X158062858Y-81058857D01*
X158062858Y-81844571D01*
X158062858Y-81058857D02*
X158134287Y-80916000D01*
X158277144Y-80844571D01*
X158491429Y-80844571D01*
X158634287Y-80916000D01*
X158705715Y-81058857D01*
X158705715Y-81844571D01*
X159991429Y-81773143D02*
X159848572Y-81844571D01*
X159562858Y-81844571D01*
X159420001Y-81773143D01*
X159348572Y-81630286D01*
X159348572Y-81058857D01*
X159420001Y-80916000D01*
X159562858Y-80844571D01*
X159848572Y-80844571D01*
X159991429Y-80916000D01*
X160062858Y-81058857D01*
X160062858Y-81201714D01*
X159348572Y-81344571D01*
X160491429Y-80844571D02*
X161062858Y-80844571D01*
X160705715Y-80344571D02*
X160705715Y-81630286D01*
X160777143Y-81773143D01*
X160920001Y-81844571D01*
X161062858Y-81844571D01*
X162134286Y-81773143D02*
X161991429Y-81844571D01*
X161705715Y-81844571D01*
X161562858Y-81773143D01*
X161491429Y-81630286D01*
X161491429Y-81058857D01*
X161562858Y-80916000D01*
X161705715Y-80844571D01*
X161991429Y-80844571D01*
X162134286Y-80916000D01*
X162205715Y-81058857D01*
X162205715Y-81201714D01*
X161491429Y-81344571D01*
X162848572Y-81844571D02*
X162848572Y-80844571D01*
X162848572Y-81130286D02*
X162920000Y-80987429D01*
X162991429Y-80916000D01*
X163134286Y-80844571D01*
X163277143Y-80844571D01*
X146848571Y-84244571D02*
X146348571Y-83530286D01*
X145991428Y-84244571D02*
X145991428Y-82744571D01*
X146562856Y-82744571D01*
X146705714Y-82816000D01*
X146777142Y-82887429D01*
X146848571Y-83030286D01*
X146848571Y-83244571D01*
X146777142Y-83387429D01*
X146705714Y-83458857D01*
X146562856Y-83530286D01*
X145991428Y-83530286D01*
X148134285Y-84244571D02*
X148134285Y-83458857D01*
X148062856Y-83316000D01*
X147919999Y-83244571D01*
X147634285Y-83244571D01*
X147491428Y-83316000D01*
X148134285Y-84173143D02*
X147991428Y-84244571D01*
X147634285Y-84244571D01*
X147491428Y-84173143D01*
X147419999Y-84030286D01*
X147419999Y-83887429D01*
X147491428Y-83744571D01*
X147634285Y-83673143D01*
X147991428Y-83673143D01*
X148134285Y-83601714D01*
X148634285Y-83244571D02*
X149205714Y-83244571D01*
X148848571Y-84244571D02*
X148848571Y-82958857D01*
X148919999Y-82816000D01*
X149062857Y-82744571D01*
X149205714Y-82744571D01*
X150348571Y-84244571D02*
X150348571Y-83458857D01*
X150277142Y-83316000D01*
X150134285Y-83244571D01*
X149848571Y-83244571D01*
X149705714Y-83316000D01*
X150348571Y-84173143D02*
X150205714Y-84244571D01*
X149848571Y-84244571D01*
X149705714Y-84173143D01*
X149634285Y-84030286D01*
X149634285Y-83887429D01*
X149705714Y-83744571D01*
X149848571Y-83673143D01*
X150205714Y-83673143D01*
X150348571Y-83601714D01*
X151277143Y-84244571D02*
X151134285Y-84173143D01*
X151062857Y-84030286D01*
X151062857Y-82744571D01*
X153848571Y-84244571D02*
X153348571Y-83530286D01*
X152991428Y-84244571D02*
X152991428Y-82744571D01*
X153562856Y-82744571D01*
X153705714Y-82816000D01*
X153777142Y-82887429D01*
X153848571Y-83030286D01*
X153848571Y-83244571D01*
X153777142Y-83387429D01*
X153705714Y-83458857D01*
X153562856Y-83530286D01*
X152991428Y-83530286D01*
X154705714Y-84244571D02*
X154562856Y-84173143D01*
X154491428Y-84101714D01*
X154419999Y-83958857D01*
X154419999Y-83530286D01*
X154491428Y-83387429D01*
X154562856Y-83316000D01*
X154705714Y-83244571D01*
X154919999Y-83244571D01*
X155062856Y-83316000D01*
X155134285Y-83387429D01*
X155205714Y-83530286D01*
X155205714Y-83958857D01*
X155134285Y-84101714D01*
X155062856Y-84173143D01*
X154919999Y-84244571D01*
X154705714Y-84244571D01*
X155705714Y-83244571D02*
X155991428Y-84244571D01*
X156277142Y-83530286D01*
X156562857Y-84244571D01*
X156848571Y-83244571D01*
X157420000Y-83244571D02*
X157420000Y-84244571D01*
X157420000Y-83387429D02*
X157491428Y-83316000D01*
X157634286Y-83244571D01*
X157848571Y-83244571D01*
X157991428Y-83316000D01*
X158062857Y-83458857D01*
X158062857Y-84244571D01*
X158777143Y-84244571D02*
X158777143Y-83244571D01*
X158777143Y-82744571D02*
X158705714Y-82816000D01*
X158777143Y-82887429D01*
X158848571Y-82816000D01*
X158777143Y-82744571D01*
X158777143Y-82887429D01*
X160134286Y-84244571D02*
X160134286Y-83458857D01*
X160062857Y-83316000D01*
X159920000Y-83244571D01*
X159634286Y-83244571D01*
X159491429Y-83316000D01*
X160134286Y-84173143D02*
X159991429Y-84244571D01*
X159634286Y-84244571D01*
X159491429Y-84173143D01*
X159420000Y-84030286D01*
X159420000Y-83887429D01*
X159491429Y-83744571D01*
X159634286Y-83673143D01*
X159991429Y-83673143D01*
X160134286Y-83601714D01*
X160848572Y-84244571D02*
X160848572Y-82744571D01*
X160991429Y-83673143D02*
X161420000Y-84244571D01*
X161420000Y-83244571D02*
X160848572Y-83816000D01*
X143205715Y-86644571D02*
X143205715Y-85644571D01*
X143205715Y-85930286D02*
X143277143Y-85787429D01*
X143348572Y-85716000D01*
X143491429Y-85644571D01*
X143634286Y-85644571D01*
X144134286Y-86644571D02*
X144134286Y-85644571D01*
X144134286Y-85930286D02*
X144205714Y-85787429D01*
X144277143Y-85716000D01*
X144420000Y-85644571D01*
X144562857Y-85644571D01*
X145277143Y-86644571D02*
X145134285Y-86573143D01*
X145062857Y-86501714D01*
X144991428Y-86358857D01*
X144991428Y-85930286D01*
X145062857Y-85787429D01*
X145134285Y-85716000D01*
X145277143Y-85644571D01*
X145491428Y-85644571D01*
X145634285Y-85716000D01*
X145705714Y-85787429D01*
X145777143Y-85930286D01*
X145777143Y-86358857D01*
X145705714Y-86501714D01*
X145634285Y-86573143D01*
X145491428Y-86644571D01*
X145277143Y-86644571D01*
X146277143Y-85644571D02*
X146562857Y-86644571D01*
X146848571Y-85930286D01*
X147134286Y-86644571D01*
X147420000Y-85644571D01*
X147991429Y-85644571D02*
X147991429Y-86644571D01*
X147991429Y-85787429D02*
X148062857Y-85716000D01*
X148205715Y-85644571D01*
X148420000Y-85644571D01*
X148562857Y-85716000D01*
X148634286Y-85858857D01*
X148634286Y-86644571D01*
X149348572Y-86644571D02*
X149348572Y-85644571D01*
X149348572Y-85144571D02*
X149277143Y-85216000D01*
X149348572Y-85287429D01*
X149420000Y-85216000D01*
X149348572Y-85144571D01*
X149348572Y-85287429D01*
X150705715Y-86644571D02*
X150705715Y-85858857D01*
X150634286Y-85716000D01*
X150491429Y-85644571D01*
X150205715Y-85644571D01*
X150062858Y-85716000D01*
X150705715Y-86573143D02*
X150562858Y-86644571D01*
X150205715Y-86644571D01*
X150062858Y-86573143D01*
X149991429Y-86430286D01*
X149991429Y-86287429D01*
X150062858Y-86144571D01*
X150205715Y-86073143D01*
X150562858Y-86073143D01*
X150705715Y-86001714D01*
X151420001Y-86644571D02*
X151420001Y-85144571D01*
X151562858Y-86073143D02*
X151991429Y-86644571D01*
X151991429Y-85644571D02*
X151420001Y-86216000D01*
X152634287Y-86501714D02*
X152705715Y-86573143D01*
X152634287Y-86644571D01*
X152562858Y-86573143D01*
X152634287Y-86501714D01*
X152634287Y-86644571D01*
X153991430Y-86573143D02*
X153848573Y-86644571D01*
X153562859Y-86644571D01*
X153420001Y-86573143D01*
X153348573Y-86501714D01*
X153277144Y-86358857D01*
X153277144Y-85930286D01*
X153348573Y-85787429D01*
X153420001Y-85716000D01*
X153562859Y-85644571D01*
X153848573Y-85644571D01*
X153991430Y-85716000D01*
X154848573Y-86644571D02*
X154705715Y-86573143D01*
X154634287Y-86501714D01*
X154562858Y-86358857D01*
X154562858Y-85930286D01*
X154634287Y-85787429D01*
X154705715Y-85716000D01*
X154848573Y-85644571D01*
X155062858Y-85644571D01*
X155205715Y-85716000D01*
X155277144Y-85787429D01*
X155348573Y-85930286D01*
X155348573Y-86358857D01*
X155277144Y-86501714D01*
X155205715Y-86573143D01*
X155062858Y-86644571D01*
X154848573Y-86644571D01*
X155991430Y-86644571D02*
X155991430Y-85644571D01*
X155991430Y-85787429D02*
X156062858Y-85716000D01*
X156205716Y-85644571D01*
X156420001Y-85644571D01*
X156562858Y-85716000D01*
X156634287Y-85858857D01*
X156634287Y-86644571D01*
X156634287Y-85858857D02*
X156705716Y-85716000D01*
X156848573Y-85644571D01*
X157062858Y-85644571D01*
X157205716Y-85716000D01*
X157277144Y-85858857D01*
X157277144Y-86644571D01*
X159062858Y-85287429D02*
X159134287Y-85216000D01*
X159277144Y-85144571D01*
X159634287Y-85144571D01*
X159777144Y-85216000D01*
X159848573Y-85287429D01*
X159920001Y-85430286D01*
X159920001Y-85573143D01*
X159848573Y-85787429D01*
X158991430Y-86644571D01*
X159920001Y-86644571D01*
X160848572Y-85144571D02*
X160991429Y-85144571D01*
X161134286Y-85216000D01*
X161205715Y-85287429D01*
X161277144Y-85430286D01*
X161348572Y-85716000D01*
X161348572Y-86073143D01*
X161277144Y-86358857D01*
X161205715Y-86501714D01*
X161134286Y-86573143D01*
X160991429Y-86644571D01*
X160848572Y-86644571D01*
X160705715Y-86573143D01*
X160634286Y-86501714D01*
X160562858Y-86358857D01*
X160491429Y-86073143D01*
X160491429Y-85716000D01*
X160562858Y-85430286D01*
X160634286Y-85287429D01*
X160705715Y-85216000D01*
X160848572Y-85144571D01*
X162777143Y-86644571D02*
X161920000Y-86644571D01*
X162348572Y-86644571D02*
X162348572Y-85144571D01*
X162205715Y-85358857D01*
X162062857Y-85501714D01*
X161920000Y-85573143D01*
X163634286Y-85787429D02*
X163491428Y-85716000D01*
X163420000Y-85644571D01*
X163348571Y-85501714D01*
X163348571Y-85430286D01*
X163420000Y-85287429D01*
X163491428Y-85216000D01*
X163634286Y-85144571D01*
X163920000Y-85144571D01*
X164062857Y-85216000D01*
X164134286Y-85287429D01*
X164205714Y-85430286D01*
X164205714Y-85501714D01*
X164134286Y-85644571D01*
X164062857Y-85716000D01*
X163920000Y-85787429D01*
X163634286Y-85787429D01*
X163491428Y-85858857D01*
X163420000Y-85930286D01*
X163348571Y-86073143D01*
X163348571Y-86358857D01*
X163420000Y-86501714D01*
X163491428Y-86573143D01*
X163634286Y-86644571D01*
X163920000Y-86644571D01*
X164062857Y-86573143D01*
X164134286Y-86501714D01*
X164205714Y-86358857D01*
X164205714Y-86073143D01*
X164134286Y-85930286D01*
X164062857Y-85858857D01*
X163920000Y-85787429D01*
D11*
X106412191Y-128722381D02*
X105936000Y-128722381D01*
X105936000Y-127722381D01*
X106745524Y-128341429D02*
X107507429Y-128341429D01*
X108221714Y-129055714D02*
X108221714Y-127627143D01*
X109412191Y-128722381D02*
X108936000Y-128722381D01*
X108936000Y-127722381D01*
X109745524Y-128341429D02*
X110507429Y-128341429D01*
X110126477Y-128722381D02*
X110126477Y-127960476D01*
X111221714Y-129055714D02*
X111221714Y-127627143D01*
X111936000Y-128722381D02*
X111936000Y-127722381D01*
X112174095Y-127722381D01*
X112316953Y-127770000D01*
X112412191Y-127865238D01*
X112459810Y-127960476D01*
X112507429Y-128150952D01*
X112507429Y-128293810D01*
X112459810Y-128484286D01*
X112412191Y-128579524D01*
X112316953Y-128674762D01*
X112174095Y-128722381D01*
X111936000Y-128722381D01*
X112840762Y-127722381D02*
X113507429Y-127722381D01*
X113078857Y-128722381D01*
X114126476Y-129055714D02*
X114126476Y-127627143D01*
X114840762Y-128722381D02*
X114840762Y-127722381D01*
X115078857Y-127722381D01*
X115221715Y-127770000D01*
X115316953Y-127865238D01*
X115364572Y-127960476D01*
X115412191Y-128150952D01*
X115412191Y-128293810D01*
X115364572Y-128484286D01*
X115316953Y-128579524D01*
X115221715Y-128674762D01*
X115078857Y-128722381D01*
X114840762Y-128722381D01*
X116269334Y-127722381D02*
X116078857Y-127722381D01*
X115983619Y-127770000D01*
X115936000Y-127817619D01*
X115840762Y-127960476D01*
X115793143Y-128150952D01*
X115793143Y-128531905D01*
X115840762Y-128627143D01*
X115888381Y-128674762D01*
X115983619Y-128722381D01*
X116174096Y-128722381D01*
X116269334Y-128674762D01*
X116316953Y-128627143D01*
X116364572Y-128531905D01*
X116364572Y-128293810D01*
X116316953Y-128198571D01*
X116269334Y-128150952D01*
X116174096Y-128103333D01*
X115983619Y-128103333D01*
X115888381Y-128150952D01*
X115840762Y-128198571D01*
X115793143Y-128293810D01*
X117031238Y-129055714D02*
X117031238Y-127627143D01*
X117745524Y-128722381D02*
X117745524Y-127722381D01*
X117983619Y-127722381D01*
X118126477Y-127770000D01*
X118221715Y-127865238D01*
X118269334Y-127960476D01*
X118316953Y-128150952D01*
X118316953Y-128293810D01*
X118269334Y-128484286D01*
X118221715Y-128579524D01*
X118126477Y-128674762D01*
X117983619Y-128722381D01*
X117745524Y-128722381D01*
X119221715Y-127722381D02*
X118745524Y-127722381D01*
X118697905Y-128198571D01*
X118745524Y-128150952D01*
X118840762Y-128103333D01*
X119078858Y-128103333D01*
X119174096Y-128150952D01*
X119221715Y-128198571D01*
X119269334Y-128293810D01*
X119269334Y-128531905D01*
X119221715Y-128627143D01*
X119174096Y-128674762D01*
X119078858Y-128722381D01*
X118840762Y-128722381D01*
X118745524Y-128674762D01*
X118697905Y-128627143D01*
X119936000Y-129055714D02*
X119936000Y-127627143D01*
X120650286Y-128722381D02*
X120650286Y-127722381D01*
X120888381Y-127722381D01*
X121031239Y-127770000D01*
X121126477Y-127865238D01*
X121174096Y-127960476D01*
X121221715Y-128150952D01*
X121221715Y-128293810D01*
X121174096Y-128484286D01*
X121126477Y-128579524D01*
X121031239Y-128674762D01*
X120888381Y-128722381D01*
X120650286Y-128722381D01*
X122078858Y-128055714D02*
X122078858Y-128722381D01*
X121840762Y-127674762D02*
X121602667Y-128389048D01*
X122221715Y-128389048D01*
X122840762Y-129055714D02*
X122840762Y-127627143D01*
X123555048Y-128198571D02*
X123888382Y-128198571D01*
X124031239Y-128722381D02*
X123555048Y-128722381D01*
X123555048Y-127722381D01*
X124031239Y-127722381D01*
X124697905Y-129055714D02*
X124697905Y-127627143D01*
X125983620Y-128722381D02*
X125650286Y-128246190D01*
X125412191Y-128722381D02*
X125412191Y-127722381D01*
X125793144Y-127722381D01*
X125888382Y-127770000D01*
X125936001Y-127817619D01*
X125983620Y-127912857D01*
X125983620Y-128055714D01*
X125936001Y-128150952D01*
X125888382Y-128198571D01*
X125793144Y-128246190D01*
X125412191Y-128246190D01*
X126316953Y-127722381D02*
X126555048Y-128722381D01*
X126745525Y-128008095D01*
X126936001Y-128722381D01*
X127174096Y-127722381D01*
X127793143Y-129055714D02*
X127793143Y-127627143D01*
X129078858Y-128722381D02*
X128745524Y-128246190D01*
X128507429Y-128722381D02*
X128507429Y-127722381D01*
X128888382Y-127722381D01*
X128983620Y-127770000D01*
X129031239Y-127817619D01*
X129078858Y-127912857D01*
X129078858Y-128055714D01*
X129031239Y-128150952D01*
X128983620Y-128198571D01*
X128888382Y-128246190D01*
X128507429Y-128246190D01*
X129459810Y-128674762D02*
X129602667Y-128722381D01*
X129840763Y-128722381D01*
X129936001Y-128674762D01*
X129983620Y-128627143D01*
X130031239Y-128531905D01*
X130031239Y-128436667D01*
X129983620Y-128341429D01*
X129936001Y-128293810D01*
X129840763Y-128246190D01*
X129650286Y-128198571D01*
X129555048Y-128150952D01*
X129507429Y-128103333D01*
X129459810Y-128008095D01*
X129459810Y-127912857D01*
X129507429Y-127817619D01*
X129555048Y-127770000D01*
X129650286Y-127722381D01*
X129888382Y-127722381D01*
X130031239Y-127770000D01*
X130697905Y-129055714D02*
X130697905Y-127627143D01*
X131364572Y-128436667D02*
X131840763Y-128436667D01*
X131269334Y-128722381D02*
X131602667Y-127722381D01*
X131936001Y-128722381D01*
X132269334Y-128722381D02*
X132269334Y-127722381D01*
X132507429Y-127722381D01*
X132650287Y-127770000D01*
X132745525Y-127865238D01*
X132793144Y-127960476D01*
X132840763Y-128150952D01*
X132840763Y-128293810D01*
X132793144Y-128484286D01*
X132745525Y-128579524D01*
X132650287Y-128674762D01*
X132507429Y-128722381D01*
X132269334Y-128722381D01*
X133507429Y-129055714D02*
X133507429Y-127627143D01*
X134221715Y-128341429D02*
X134983620Y-128341429D01*
X134602668Y-128722381D02*
X134602668Y-127960476D01*
X135936001Y-127722381D02*
X135459810Y-127722381D01*
X135412191Y-128198571D01*
X135459810Y-128150952D01*
X135555048Y-128103333D01*
X135793144Y-128103333D01*
X135888382Y-128150952D01*
X135936001Y-128198571D01*
X135983620Y-128293810D01*
X135983620Y-128531905D01*
X135936001Y-128627143D01*
X135888382Y-128674762D01*
X135793144Y-128722381D01*
X135555048Y-128722381D01*
X135459810Y-128674762D01*
X135412191Y-128627143D01*
X136650286Y-129055714D02*
X136650286Y-127627143D01*
X137888382Y-127770000D02*
X137793144Y-127722381D01*
X137650287Y-127722381D01*
X137507429Y-127770000D01*
X137412191Y-127865238D01*
X137364572Y-127960476D01*
X137316953Y-128150952D01*
X137316953Y-128293810D01*
X137364572Y-128484286D01*
X137412191Y-128579524D01*
X137507429Y-128674762D01*
X137650287Y-128722381D01*
X137745525Y-128722381D01*
X137888382Y-128674762D01*
X137936001Y-128627143D01*
X137936001Y-128293810D01*
X137745525Y-128293810D01*
X138364572Y-128722381D02*
X138364572Y-127722381D01*
X138936001Y-128722381D01*
X138936001Y-127722381D01*
X139412191Y-128722381D02*
X139412191Y-127722381D01*
X139650286Y-127722381D01*
X139793144Y-127770000D01*
X139888382Y-127865238D01*
X139936001Y-127960476D01*
X139983620Y-128150952D01*
X139983620Y-128293810D01*
X139936001Y-128484286D01*
X139888382Y-128579524D01*
X139793144Y-128674762D01*
X139650286Y-128722381D01*
X139412191Y-128722381D01*
X91766190Y-127722381D02*
X92385238Y-127722381D01*
X92051904Y-128103333D01*
X92194762Y-128103333D01*
X92290000Y-128150952D01*
X92337619Y-128198571D01*
X92385238Y-128293810D01*
X92385238Y-128531905D01*
X92337619Y-128627143D01*
X92290000Y-128674762D01*
X92194762Y-128722381D01*
X91909047Y-128722381D01*
X91813809Y-128674762D01*
X91766190Y-128627143D01*
X92670952Y-127722381D02*
X93004285Y-128722381D01*
X93337619Y-127722381D01*
X93575714Y-127722381D02*
X94194762Y-127722381D01*
X93861428Y-128103333D01*
X94004286Y-128103333D01*
X94099524Y-128150952D01*
X94147143Y-128198571D01*
X94194762Y-128293810D01*
X94194762Y-128531905D01*
X94147143Y-128627143D01*
X94099524Y-128674762D01*
X94004286Y-128722381D01*
X93718571Y-128722381D01*
X93623333Y-128674762D01*
X93575714Y-128627143D01*
X94861428Y-129055714D02*
X94861428Y-127627143D01*
X96147143Y-128722381D02*
X95813809Y-128246190D01*
X95575714Y-128722381D02*
X95575714Y-127722381D01*
X95956667Y-127722381D01*
X96051905Y-127770000D01*
X96099524Y-127817619D01*
X96147143Y-127912857D01*
X96147143Y-128055714D01*
X96099524Y-128150952D01*
X96051905Y-128198571D01*
X95956667Y-128246190D01*
X95575714Y-128246190D01*
X96480476Y-127722381D02*
X97147143Y-128722381D01*
X97147143Y-127722381D02*
X96480476Y-128722381D01*
X97766190Y-129055714D02*
X97766190Y-127627143D01*
X98337619Y-127722381D02*
X98909048Y-127722381D01*
X98623333Y-128722381D02*
X98623333Y-127722381D01*
X99147143Y-127722381D02*
X99813810Y-128722381D01*
X99813810Y-127722381D02*
X99147143Y-128722381D01*
X100432857Y-129055714D02*
X100432857Y-127627143D01*
X101670953Y-127770000D02*
X101575715Y-127722381D01*
X101432858Y-127722381D01*
X101290000Y-127770000D01*
X101194762Y-127865238D01*
X101147143Y-127960476D01*
X101099524Y-128150952D01*
X101099524Y-128293810D01*
X101147143Y-128484286D01*
X101194762Y-128579524D01*
X101290000Y-128674762D01*
X101432858Y-128722381D01*
X101528096Y-128722381D01*
X101670953Y-128674762D01*
X101718572Y-128627143D01*
X101718572Y-128293810D01*
X101528096Y-128293810D01*
X102147143Y-128722381D02*
X102147143Y-127722381D01*
X102718572Y-128722381D01*
X102718572Y-127722381D01*
X103194762Y-128722381D02*
X103194762Y-127722381D01*
X103432857Y-127722381D01*
X103575715Y-127770000D01*
X103670953Y-127865238D01*
X103718572Y-127960476D01*
X103766191Y-128150952D01*
X103766191Y-128293810D01*
X103718572Y-128484286D01*
X103670953Y-128579524D01*
X103575715Y-128674762D01*
X103432857Y-128722381D01*
X103194762Y-128722381D01*
D13*
X148432000Y-57658000D02*
G75*
G03X148432000Y-57658000I-4120000J0D01*
G01*
X144312000Y-61738000D02*
X144312000Y-53578000D01*
X144272000Y-61738000D02*
X144272000Y-53578000D01*
X144232000Y-61738000D02*
X144232000Y-53578000D01*
X144192000Y-61737000D02*
X144192000Y-53579000D01*
X144152000Y-61735000D02*
X144152000Y-53581000D01*
X144112000Y-61734000D02*
X144112000Y-53582000D01*
X144072000Y-61732000D02*
X144072000Y-53584000D01*
X144032000Y-61729000D02*
X144032000Y-53587000D01*
X143992000Y-61726000D02*
X143992000Y-53590000D01*
X143952000Y-61723000D02*
X143952000Y-53593000D01*
X143912000Y-61719000D02*
X143912000Y-53597000D01*
X143872000Y-61715000D02*
X143872000Y-53601000D01*
X143832000Y-61710000D02*
X143832000Y-53606000D01*
X143792000Y-61706000D02*
X143792000Y-53610000D01*
X143752000Y-61700000D02*
X143752000Y-53616000D01*
X143712000Y-61695000D02*
X143712000Y-53621000D01*
X143672000Y-61688000D02*
X143672000Y-53628000D01*
X143632000Y-61682000D02*
X143632000Y-53634000D01*
X143591000Y-61675000D02*
X143591000Y-53641000D01*
X143551000Y-61668000D02*
X143551000Y-53648000D01*
X143511000Y-61660000D02*
X143511000Y-53656000D01*
X143471000Y-61652000D02*
X143471000Y-53664000D01*
X143431000Y-61643000D02*
X143431000Y-53673000D01*
X143391000Y-61634000D02*
X143391000Y-53682000D01*
X143351000Y-61625000D02*
X143351000Y-53691000D01*
X143311000Y-61615000D02*
X143311000Y-53701000D01*
X143271000Y-61605000D02*
X143271000Y-53711000D01*
X143231000Y-61594000D02*
X143231000Y-53722000D01*
X143191000Y-61583000D02*
X143191000Y-53733000D01*
X143151000Y-61572000D02*
X143151000Y-53744000D01*
X143111000Y-61560000D02*
X143111000Y-53756000D01*
X143071000Y-61547000D02*
X143071000Y-53769000D01*
X143031000Y-61535000D02*
X143031000Y-53781000D01*
X142991000Y-61521000D02*
X142991000Y-53795000D01*
X142951000Y-61508000D02*
X142951000Y-53808000D01*
X142911000Y-61493000D02*
X142911000Y-53823000D01*
X142871000Y-61479000D02*
X142871000Y-53837000D01*
X142831000Y-61463000D02*
X142831000Y-58698000D01*
X142831000Y-56618000D02*
X142831000Y-53853000D01*
X142791000Y-61448000D02*
X142791000Y-58698000D01*
X142791000Y-56618000D02*
X142791000Y-53868000D01*
X142751000Y-61432000D02*
X142751000Y-58698000D01*
X142751000Y-56618000D02*
X142751000Y-53884000D01*
X142711000Y-61415000D02*
X142711000Y-58698000D01*
X142711000Y-56618000D02*
X142711000Y-53901000D01*
X142671000Y-61398000D02*
X142671000Y-58698000D01*
X142671000Y-56618000D02*
X142671000Y-53918000D01*
X142631000Y-61380000D02*
X142631000Y-58698000D01*
X142631000Y-56618000D02*
X142631000Y-53936000D01*
X142591000Y-61362000D02*
X142591000Y-58698000D01*
X142591000Y-56618000D02*
X142591000Y-53954000D01*
X142551000Y-61344000D02*
X142551000Y-58698000D01*
X142551000Y-56618000D02*
X142551000Y-53972000D01*
X142511000Y-61324000D02*
X142511000Y-58698000D01*
X142511000Y-56618000D02*
X142511000Y-53992000D01*
X142471000Y-61305000D02*
X142471000Y-58698000D01*
X142471000Y-56618000D02*
X142471000Y-54011000D01*
X142431000Y-61285000D02*
X142431000Y-58698000D01*
X142431000Y-56618000D02*
X142431000Y-54031000D01*
X142391000Y-61264000D02*
X142391000Y-58698000D01*
X142391000Y-56618000D02*
X142391000Y-54052000D01*
X142351000Y-61242000D02*
X142351000Y-58698000D01*
X142351000Y-56618000D02*
X142351000Y-54074000D01*
X142311000Y-61220000D02*
X142311000Y-58698000D01*
X142311000Y-56618000D02*
X142311000Y-54096000D01*
X142271000Y-61198000D02*
X142271000Y-58698000D01*
X142271000Y-56618000D02*
X142271000Y-54118000D01*
X142231000Y-61175000D02*
X142231000Y-58698000D01*
X142231000Y-56618000D02*
X142231000Y-54141000D01*
X142191000Y-61151000D02*
X142191000Y-58698000D01*
X142191000Y-56618000D02*
X142191000Y-54165000D01*
X142151000Y-61127000D02*
X142151000Y-58698000D01*
X142151000Y-56618000D02*
X142151000Y-54189000D01*
X142111000Y-61102000D02*
X142111000Y-58698000D01*
X142111000Y-56618000D02*
X142111000Y-54214000D01*
X142071000Y-61076000D02*
X142071000Y-58698000D01*
X142071000Y-56618000D02*
X142071000Y-54240000D01*
X142031000Y-61050000D02*
X142031000Y-58698000D01*
X142031000Y-56618000D02*
X142031000Y-54266000D01*
X141991000Y-61023000D02*
X141991000Y-58698000D01*
X141991000Y-56618000D02*
X141991000Y-54293000D01*
X141951000Y-60996000D02*
X141951000Y-58698000D01*
X141951000Y-56618000D02*
X141951000Y-54320000D01*
X141911000Y-60967000D02*
X141911000Y-58698000D01*
X141911000Y-56618000D02*
X141911000Y-54349000D01*
X141871000Y-60938000D02*
X141871000Y-58698000D01*
X141871000Y-56618000D02*
X141871000Y-54378000D01*
X141831000Y-60908000D02*
X141831000Y-58698000D01*
X141831000Y-56618000D02*
X141831000Y-54408000D01*
X141791000Y-60878000D02*
X141791000Y-58698000D01*
X141791000Y-56618000D02*
X141791000Y-54438000D01*
X141751000Y-60847000D02*
X141751000Y-58698000D01*
X141751000Y-56618000D02*
X141751000Y-54469000D01*
X141711000Y-60814000D02*
X141711000Y-58698000D01*
X141711000Y-56618000D02*
X141711000Y-54502000D01*
X141671000Y-60782000D02*
X141671000Y-58698000D01*
X141671000Y-56618000D02*
X141671000Y-54534000D01*
X141631000Y-60748000D02*
X141631000Y-58698000D01*
X141631000Y-56618000D02*
X141631000Y-54568000D01*
X141591000Y-60713000D02*
X141591000Y-58698000D01*
X141591000Y-56618000D02*
X141591000Y-54603000D01*
X141551000Y-60677000D02*
X141551000Y-58698000D01*
X141551000Y-56618000D02*
X141551000Y-54639000D01*
X141511000Y-60641000D02*
X141511000Y-58698000D01*
X141511000Y-56618000D02*
X141511000Y-54675000D01*
X141471000Y-60603000D02*
X141471000Y-58698000D01*
X141471000Y-56618000D02*
X141471000Y-54713000D01*
X141431000Y-60565000D02*
X141431000Y-58698000D01*
X141431000Y-56618000D02*
X141431000Y-54751000D01*
X141391000Y-60525000D02*
X141391000Y-58698000D01*
X141391000Y-56618000D02*
X141391000Y-54791000D01*
X141351000Y-60484000D02*
X141351000Y-58698000D01*
X141351000Y-56618000D02*
X141351000Y-54832000D01*
X141311000Y-60442000D02*
X141311000Y-58698000D01*
X141311000Y-56618000D02*
X141311000Y-54874000D01*
X141271000Y-60399000D02*
X141271000Y-58698000D01*
X141271000Y-56618000D02*
X141271000Y-54917000D01*
X141231000Y-60355000D02*
X141231000Y-58698000D01*
X141231000Y-56618000D02*
X141231000Y-54961000D01*
X141191000Y-60309000D02*
X141191000Y-58698000D01*
X141191000Y-56618000D02*
X141191000Y-55007000D01*
X141151000Y-60262000D02*
X141151000Y-58698000D01*
X141151000Y-56618000D02*
X141151000Y-55054000D01*
X141111000Y-60214000D02*
X141111000Y-58698000D01*
X141111000Y-56618000D02*
X141111000Y-55102000D01*
X141071000Y-60163000D02*
X141071000Y-58698000D01*
X141071000Y-56618000D02*
X141071000Y-55153000D01*
X141031000Y-60112000D02*
X141031000Y-58698000D01*
X141031000Y-56618000D02*
X141031000Y-55204000D01*
X140991000Y-60058000D02*
X140991000Y-58698000D01*
X140991000Y-56618000D02*
X140991000Y-55258000D01*
X140951000Y-60003000D02*
X140951000Y-58698000D01*
X140951000Y-56618000D02*
X140951000Y-55313000D01*
X140911000Y-59945000D02*
X140911000Y-58698000D01*
X140911000Y-56618000D02*
X140911000Y-55371000D01*
X140871000Y-59886000D02*
X140871000Y-58698000D01*
X140871000Y-56618000D02*
X140871000Y-55430000D01*
X140831000Y-59824000D02*
X140831000Y-58698000D01*
X140831000Y-56618000D02*
X140831000Y-55492000D01*
X140791000Y-59760000D02*
X140791000Y-58698000D01*
X140791000Y-56618000D02*
X140791000Y-55556000D01*
X140751000Y-59692000D02*
X140751000Y-55624000D01*
X140711000Y-59622000D02*
X140711000Y-55694000D01*
X140671000Y-59548000D02*
X140671000Y-55768000D01*
X140631000Y-59471000D02*
X140631000Y-55845000D01*
X140591000Y-59389000D02*
X140591000Y-55927000D01*
X140551000Y-59303000D02*
X140551000Y-56013000D01*
X140511000Y-59210000D02*
X140511000Y-56106000D01*
X140471000Y-59111000D02*
X140471000Y-56205000D01*
X140431000Y-59004000D02*
X140431000Y-56312000D01*
X140391000Y-58887000D02*
X140391000Y-56429000D01*
X140351000Y-58756000D02*
X140351000Y-56560000D01*
X140311000Y-58606000D02*
X140311000Y-56710000D01*
X140271000Y-58426000D02*
X140271000Y-56890000D01*
X140231000Y-58191000D02*
X140231000Y-57125000D01*
X148721698Y-59973000D02*
X147921698Y-59973000D01*
X148321698Y-60373000D02*
X148321698Y-59573000D01*
D14*
X146046000Y-66528000D02*
X143046000Y-66528000D01*
X143046000Y-64028000D02*
X146046000Y-64028000D01*
X106938000Y-53868000D02*
X109938000Y-53868000D01*
X109938000Y-56368000D02*
X106938000Y-56368000D01*
X160270000Y-66528000D02*
X157270000Y-66528000D01*
X157270000Y-64028000D02*
X160270000Y-64028000D01*
D13*
X162148000Y-57658000D02*
G75*
G03X162148000Y-57658000I-4120000J0D01*
G01*
X158028000Y-61738000D02*
X158028000Y-53578000D01*
X157988000Y-61738000D02*
X157988000Y-53578000D01*
X157948000Y-61738000D02*
X157948000Y-53578000D01*
X157908000Y-61737000D02*
X157908000Y-53579000D01*
X157868000Y-61735000D02*
X157868000Y-53581000D01*
X157828000Y-61734000D02*
X157828000Y-53582000D01*
X157788000Y-61732000D02*
X157788000Y-53584000D01*
X157748000Y-61729000D02*
X157748000Y-53587000D01*
X157708000Y-61726000D02*
X157708000Y-53590000D01*
X157668000Y-61723000D02*
X157668000Y-53593000D01*
X157628000Y-61719000D02*
X157628000Y-53597000D01*
X157588000Y-61715000D02*
X157588000Y-53601000D01*
X157548000Y-61710000D02*
X157548000Y-53606000D01*
X157508000Y-61706000D02*
X157508000Y-53610000D01*
X157468000Y-61700000D02*
X157468000Y-53616000D01*
X157428000Y-61695000D02*
X157428000Y-53621000D01*
X157388000Y-61688000D02*
X157388000Y-53628000D01*
X157348000Y-61682000D02*
X157348000Y-53634000D01*
X157307000Y-61675000D02*
X157307000Y-53641000D01*
X157267000Y-61668000D02*
X157267000Y-53648000D01*
X157227000Y-61660000D02*
X157227000Y-53656000D01*
X157187000Y-61652000D02*
X157187000Y-53664000D01*
X157147000Y-61643000D02*
X157147000Y-53673000D01*
X157107000Y-61634000D02*
X157107000Y-53682000D01*
X157067000Y-61625000D02*
X157067000Y-53691000D01*
X157027000Y-61615000D02*
X157027000Y-53701000D01*
X156987000Y-61605000D02*
X156987000Y-53711000D01*
X156947000Y-61594000D02*
X156947000Y-53722000D01*
X156907000Y-61583000D02*
X156907000Y-53733000D01*
X156867000Y-61572000D02*
X156867000Y-53744000D01*
X156827000Y-61560000D02*
X156827000Y-53756000D01*
X156787000Y-61547000D02*
X156787000Y-53769000D01*
X156747000Y-61535000D02*
X156747000Y-53781000D01*
X156707000Y-61521000D02*
X156707000Y-53795000D01*
X156667000Y-61508000D02*
X156667000Y-53808000D01*
X156627000Y-61493000D02*
X156627000Y-53823000D01*
X156587000Y-61479000D02*
X156587000Y-53837000D01*
X156547000Y-61463000D02*
X156547000Y-58698000D01*
X156547000Y-56618000D02*
X156547000Y-53853000D01*
X156507000Y-61448000D02*
X156507000Y-58698000D01*
X156507000Y-56618000D02*
X156507000Y-53868000D01*
X156467000Y-61432000D02*
X156467000Y-58698000D01*
X156467000Y-56618000D02*
X156467000Y-53884000D01*
X156427000Y-61415000D02*
X156427000Y-58698000D01*
X156427000Y-56618000D02*
X156427000Y-53901000D01*
X156387000Y-61398000D02*
X156387000Y-58698000D01*
X156387000Y-56618000D02*
X156387000Y-53918000D01*
X156347000Y-61380000D02*
X156347000Y-58698000D01*
X156347000Y-56618000D02*
X156347000Y-53936000D01*
X156307000Y-61362000D02*
X156307000Y-58698000D01*
X156307000Y-56618000D02*
X156307000Y-53954000D01*
X156267000Y-61344000D02*
X156267000Y-58698000D01*
X156267000Y-56618000D02*
X156267000Y-53972000D01*
X156227000Y-61324000D02*
X156227000Y-58698000D01*
X156227000Y-56618000D02*
X156227000Y-53992000D01*
X156187000Y-61305000D02*
X156187000Y-58698000D01*
X156187000Y-56618000D02*
X156187000Y-54011000D01*
X156147000Y-61285000D02*
X156147000Y-58698000D01*
X156147000Y-56618000D02*
X156147000Y-54031000D01*
X156107000Y-61264000D02*
X156107000Y-58698000D01*
X156107000Y-56618000D02*
X156107000Y-54052000D01*
X156067000Y-61242000D02*
X156067000Y-58698000D01*
X156067000Y-56618000D02*
X156067000Y-54074000D01*
X156027000Y-61220000D02*
X156027000Y-58698000D01*
X156027000Y-56618000D02*
X156027000Y-54096000D01*
X155987000Y-61198000D02*
X155987000Y-58698000D01*
X155987000Y-56618000D02*
X155987000Y-54118000D01*
X155947000Y-61175000D02*
X155947000Y-58698000D01*
X155947000Y-56618000D02*
X155947000Y-54141000D01*
X155907000Y-61151000D02*
X155907000Y-58698000D01*
X155907000Y-56618000D02*
X155907000Y-54165000D01*
X155867000Y-61127000D02*
X155867000Y-58698000D01*
X155867000Y-56618000D02*
X155867000Y-54189000D01*
X155827000Y-61102000D02*
X155827000Y-58698000D01*
X155827000Y-56618000D02*
X155827000Y-54214000D01*
X155787000Y-61076000D02*
X155787000Y-58698000D01*
X155787000Y-56618000D02*
X155787000Y-54240000D01*
X155747000Y-61050000D02*
X155747000Y-58698000D01*
X155747000Y-56618000D02*
X155747000Y-54266000D01*
X155707000Y-61023000D02*
X155707000Y-58698000D01*
X155707000Y-56618000D02*
X155707000Y-54293000D01*
X155667000Y-60996000D02*
X155667000Y-58698000D01*
X155667000Y-56618000D02*
X155667000Y-54320000D01*
X155627000Y-60967000D02*
X155627000Y-58698000D01*
X155627000Y-56618000D02*
X155627000Y-54349000D01*
X155587000Y-60938000D02*
X155587000Y-58698000D01*
X155587000Y-56618000D02*
X155587000Y-54378000D01*
X155547000Y-60908000D02*
X155547000Y-58698000D01*
X155547000Y-56618000D02*
X155547000Y-54408000D01*
X155507000Y-60878000D02*
X155507000Y-58698000D01*
X155507000Y-56618000D02*
X155507000Y-54438000D01*
X155467000Y-60847000D02*
X155467000Y-58698000D01*
X155467000Y-56618000D02*
X155467000Y-54469000D01*
X155427000Y-60814000D02*
X155427000Y-58698000D01*
X155427000Y-56618000D02*
X155427000Y-54502000D01*
X155387000Y-60782000D02*
X155387000Y-58698000D01*
X155387000Y-56618000D02*
X155387000Y-54534000D01*
X155347000Y-60748000D02*
X155347000Y-58698000D01*
X155347000Y-56618000D02*
X155347000Y-54568000D01*
X155307000Y-60713000D02*
X155307000Y-58698000D01*
X155307000Y-56618000D02*
X155307000Y-54603000D01*
X155267000Y-60677000D02*
X155267000Y-58698000D01*
X155267000Y-56618000D02*
X155267000Y-54639000D01*
X155227000Y-60641000D02*
X155227000Y-58698000D01*
X155227000Y-56618000D02*
X155227000Y-54675000D01*
X155187000Y-60603000D02*
X155187000Y-58698000D01*
X155187000Y-56618000D02*
X155187000Y-54713000D01*
X155147000Y-60565000D02*
X155147000Y-58698000D01*
X155147000Y-56618000D02*
X155147000Y-54751000D01*
X155107000Y-60525000D02*
X155107000Y-58698000D01*
X155107000Y-56618000D02*
X155107000Y-54791000D01*
X155067000Y-60484000D02*
X155067000Y-58698000D01*
X155067000Y-56618000D02*
X155067000Y-54832000D01*
X155027000Y-60442000D02*
X155027000Y-58698000D01*
X155027000Y-56618000D02*
X155027000Y-54874000D01*
X154987000Y-60399000D02*
X154987000Y-58698000D01*
X154987000Y-56618000D02*
X154987000Y-54917000D01*
X154947000Y-60355000D02*
X154947000Y-58698000D01*
X154947000Y-56618000D02*
X154947000Y-54961000D01*
X154907000Y-60309000D02*
X154907000Y-58698000D01*
X154907000Y-56618000D02*
X154907000Y-55007000D01*
X154867000Y-60262000D02*
X154867000Y-58698000D01*
X154867000Y-56618000D02*
X154867000Y-55054000D01*
X154827000Y-60214000D02*
X154827000Y-58698000D01*
X154827000Y-56618000D02*
X154827000Y-55102000D01*
X154787000Y-60163000D02*
X154787000Y-58698000D01*
X154787000Y-56618000D02*
X154787000Y-55153000D01*
X154747000Y-60112000D02*
X154747000Y-58698000D01*
X154747000Y-56618000D02*
X154747000Y-55204000D01*
X154707000Y-60058000D02*
X154707000Y-58698000D01*
X154707000Y-56618000D02*
X154707000Y-55258000D01*
X154667000Y-60003000D02*
X154667000Y-58698000D01*
X154667000Y-56618000D02*
X154667000Y-55313000D01*
X154627000Y-59945000D02*
X154627000Y-58698000D01*
X154627000Y-56618000D02*
X154627000Y-55371000D01*
X154587000Y-59886000D02*
X154587000Y-58698000D01*
X154587000Y-56618000D02*
X154587000Y-55430000D01*
X154547000Y-59824000D02*
X154547000Y-58698000D01*
X154547000Y-56618000D02*
X154547000Y-55492000D01*
X154507000Y-59760000D02*
X154507000Y-58698000D01*
X154507000Y-56618000D02*
X154507000Y-55556000D01*
X154467000Y-59692000D02*
X154467000Y-55624000D01*
X154427000Y-59622000D02*
X154427000Y-55694000D01*
X154387000Y-59548000D02*
X154387000Y-55768000D01*
X154347000Y-59471000D02*
X154347000Y-55845000D01*
X154307000Y-59389000D02*
X154307000Y-55927000D01*
X154267000Y-59303000D02*
X154267000Y-56013000D01*
X154227000Y-59210000D02*
X154227000Y-56106000D01*
X154187000Y-59111000D02*
X154187000Y-56205000D01*
X154147000Y-59004000D02*
X154147000Y-56312000D01*
X154107000Y-58887000D02*
X154107000Y-56429000D01*
X154067000Y-58756000D02*
X154067000Y-56560000D01*
X154027000Y-58606000D02*
X154027000Y-56710000D01*
X153987000Y-58426000D02*
X153987000Y-56890000D01*
X153947000Y-58191000D02*
X153947000Y-57125000D01*
X162437698Y-59973000D02*
X161637698Y-59973000D01*
X162037698Y-60373000D02*
X162037698Y-59573000D01*
D14*
X123194000Y-70124000D02*
X126194000Y-70124000D01*
X126194000Y-72624000D02*
X123194000Y-72624000D01*
X120630000Y-74680000D02*
X120630000Y-77680000D01*
X118130000Y-77680000D02*
X118130000Y-74680000D01*
X126234000Y-77704000D02*
X123234000Y-77704000D01*
X123234000Y-75204000D02*
X126234000Y-75204000D01*
X156214000Y-120924000D02*
X159214000Y-120924000D01*
X159214000Y-123424000D02*
X156214000Y-123424000D01*
D13*
X102034000Y-55750000D02*
X102034000Y-56080000D01*
X102034000Y-56080000D02*
X96594000Y-56080000D01*
X96594000Y-56080000D02*
X96594000Y-55750000D01*
X102034000Y-53470000D02*
X102034000Y-53140000D01*
X102034000Y-53140000D02*
X96594000Y-53140000D01*
X96594000Y-53140000D02*
X96594000Y-53470000D01*
X101134000Y-56080000D02*
X101134000Y-53140000D01*
X101014000Y-56080000D02*
X101014000Y-53140000D01*
X101254000Y-56080000D02*
X101254000Y-53140000D01*
X83386000Y-101730000D02*
X83386000Y-101400000D01*
X83386000Y-101400000D02*
X88826000Y-101400000D01*
X88826000Y-101400000D02*
X88826000Y-101730000D01*
X83386000Y-104010000D02*
X83386000Y-104340000D01*
X83386000Y-104340000D02*
X88826000Y-104340000D01*
X88826000Y-104340000D02*
X88826000Y-104010000D01*
X84286000Y-101400000D02*
X84286000Y-104340000D01*
X84406000Y-101400000D02*
X84406000Y-104340000D01*
X84166000Y-101400000D02*
X84166000Y-104340000D01*
X101018000Y-104010000D02*
X101018000Y-104340000D01*
X101018000Y-104340000D02*
X95578000Y-104340000D01*
X95578000Y-104340000D02*
X95578000Y-104010000D01*
X101018000Y-101730000D02*
X101018000Y-101400000D01*
X101018000Y-101400000D02*
X95578000Y-101400000D01*
X95578000Y-101400000D02*
X95578000Y-101730000D01*
X100118000Y-104340000D02*
X100118000Y-101400000D01*
X99998000Y-104340000D02*
X99998000Y-101400000D01*
X100238000Y-104340000D02*
X100238000Y-101400000D01*
X120830000Y-86738000D02*
X120830000Y-87068000D01*
X120830000Y-87068000D02*
X115390000Y-87068000D01*
X115390000Y-87068000D02*
X115390000Y-86738000D01*
X120830000Y-84458000D02*
X120830000Y-84128000D01*
X120830000Y-84128000D02*
X115390000Y-84128000D01*
X115390000Y-84128000D02*
X115390000Y-84458000D01*
X119930000Y-87068000D02*
X119930000Y-84128000D01*
X119810000Y-87068000D02*
X119810000Y-84128000D01*
X120050000Y-87068000D02*
X120050000Y-84128000D01*
X120830000Y-91310000D02*
X120830000Y-91640000D01*
X120830000Y-91640000D02*
X115390000Y-91640000D01*
X115390000Y-91640000D02*
X115390000Y-91310000D01*
X120830000Y-89030000D02*
X120830000Y-88700000D01*
X120830000Y-88700000D02*
X115390000Y-88700000D01*
X115390000Y-88700000D02*
X115390000Y-89030000D01*
X119930000Y-91640000D02*
X119930000Y-88700000D01*
X119810000Y-91640000D02*
X119810000Y-88700000D01*
X120050000Y-91640000D02*
X120050000Y-88700000D01*
X132204000Y-77036000D02*
X132534000Y-77036000D01*
X132534000Y-77036000D02*
X132534000Y-82476000D01*
X132534000Y-82476000D02*
X132204000Y-82476000D01*
X129924000Y-77036000D02*
X129594000Y-77036000D01*
X129594000Y-77036000D02*
X129594000Y-82476000D01*
X129594000Y-82476000D02*
X129924000Y-82476000D01*
X132534000Y-77936000D02*
X129594000Y-77936000D01*
X132534000Y-78056000D02*
X129594000Y-78056000D01*
X132534000Y-77816000D02*
X129594000Y-77816000D01*
X142166000Y-78610000D02*
X142166000Y-78940000D01*
X142166000Y-78940000D02*
X136726000Y-78940000D01*
X136726000Y-78940000D02*
X136726000Y-78610000D01*
X142166000Y-76330000D02*
X142166000Y-76000000D01*
X142166000Y-76000000D02*
X136726000Y-76000000D01*
X136726000Y-76000000D02*
X136726000Y-76330000D01*
X141266000Y-78940000D02*
X141266000Y-76000000D01*
X141146000Y-78940000D02*
X141146000Y-76000000D01*
X141386000Y-78940000D02*
X141386000Y-76000000D01*
D14*
X143282000Y-50038000D02*
X143282000Y-51588000D01*
X141732000Y-51588000D02*
X143282000Y-51588000D01*
X143002000Y-48768000D02*
X140462000Y-48768000D01*
X137922000Y-51308000D02*
X140462000Y-51308000D01*
X140462000Y-51308000D02*
X140462000Y-48768000D01*
X140462000Y-48768000D02*
X137922000Y-48768000D01*
X137922000Y-48768000D02*
X137922000Y-51308000D01*
X107696000Y-92684000D02*
X109246000Y-92684000D01*
X109246000Y-94234000D02*
X109246000Y-92684000D01*
X106426000Y-92964000D02*
X106426000Y-95504000D01*
X108966000Y-98044000D02*
X108966000Y-95504000D01*
X108966000Y-95504000D02*
X106426000Y-95504000D01*
X106426000Y-95504000D02*
X106426000Y-98044000D01*
X106426000Y-98044000D02*
X108966000Y-98044000D01*
X143282000Y-92202000D02*
X143282000Y-93752000D01*
X141732000Y-93752000D02*
X143282000Y-93752000D01*
X143002000Y-90932000D02*
X140462000Y-90932000D01*
X137922000Y-93472000D02*
X140462000Y-93472000D01*
X140462000Y-93472000D02*
X140462000Y-90932000D01*
X140462000Y-90932000D02*
X137922000Y-90932000D01*
X137922000Y-90932000D02*
X137922000Y-93472000D01*
D13*
X91516000Y-98706000D02*
X91516000Y-100406000D01*
X91516000Y-100406000D02*
X90016000Y-100406000D01*
X91316000Y-79606000D02*
X91316000Y-100206000D01*
X91316000Y-100206000D02*
X80916000Y-100206000D01*
X80916000Y-100206000D02*
X80916000Y-79606000D01*
X80916000Y-79606000D02*
X91316000Y-79606000D01*
X86516000Y-98806000D02*
X87616000Y-98806000D01*
X85816000Y-98806000D02*
X84716000Y-98806000D01*
X86516000Y-98606000D02*
X85816000Y-99006000D01*
X86516000Y-99406000D02*
X86516000Y-98206000D01*
X86516000Y-98206000D02*
X85816000Y-98206000D01*
X85816000Y-98206000D02*
X85816000Y-99406000D01*
X85816000Y-99406000D02*
X86516000Y-99406000D01*
X103708000Y-98706000D02*
X103708000Y-100406000D01*
X103708000Y-100406000D02*
X102208000Y-100406000D01*
X103508000Y-79606000D02*
X103508000Y-100206000D01*
X103508000Y-100206000D02*
X93108000Y-100206000D01*
X93108000Y-100206000D02*
X93108000Y-79606000D01*
X93108000Y-79606000D02*
X103508000Y-79606000D01*
X98708000Y-98806000D02*
X99808000Y-98806000D01*
X98008000Y-98806000D02*
X96908000Y-98806000D01*
X98708000Y-98606000D02*
X98008000Y-99006000D01*
X98708000Y-99406000D02*
X98708000Y-98206000D01*
X98708000Y-98206000D02*
X98008000Y-98206000D01*
X98008000Y-98206000D02*
X98008000Y-99406000D01*
X98008000Y-99406000D02*
X98708000Y-99406000D01*
D14*
X134620000Y-127000000D02*
X106680000Y-127000000D01*
X106680000Y-127000000D02*
X106680000Y-124460000D01*
X106680000Y-124460000D02*
X134620000Y-124460000D01*
X137440000Y-127280000D02*
X135890000Y-127280000D01*
X134620000Y-127000000D02*
X134620000Y-124460000D01*
X135890000Y-124180000D02*
X137440000Y-124180000D01*
X137440000Y-124180000D02*
X137440000Y-127280000D01*
X95250000Y-127000000D02*
X102870000Y-127000000D01*
X95250000Y-124460000D02*
X102870000Y-124460000D01*
X92430000Y-124180000D02*
X93980000Y-124180000D01*
X102870000Y-127000000D02*
X102870000Y-124460000D01*
X95250000Y-124460000D02*
X95250000Y-127000000D01*
X93980000Y-127280000D02*
X92430000Y-127280000D01*
X92430000Y-127280000D02*
X92430000Y-124180000D01*
X81612000Y-105996000D02*
X81612000Y-109396000D01*
X81614944Y-105998944D02*
G75*
G02X85712000Y-107696000I1697056J-1697056D01*
G01*
X81614944Y-109393056D02*
G75*
G03X85712000Y-107696000I1697056J1697056D01*
G01*
X111682000Y-48846000D02*
X108282000Y-48846000D01*
X111679056Y-48848944D02*
G75*
G02X109982000Y-52946000I-1697056J-1697056D01*
G01*
X108284944Y-48848944D02*
G75*
G03X109982000Y-52946000I1697056J-1697056D01*
G01*
X81612000Y-112600000D02*
X81612000Y-116000000D01*
X81614944Y-112602944D02*
G75*
G02X85712000Y-114300000I1697056J-1697056D01*
G01*
X81614944Y-115997056D02*
G75*
G03X85712000Y-114300000I1697056J1697056D01*
G01*
X123874000Y-48846000D02*
X120474000Y-48846000D01*
X123871056Y-48848944D02*
G75*
G02X122174000Y-52946000I-1697056J-1697056D01*
G01*
X120476944Y-48848944D02*
G75*
G03X122174000Y-52946000I1697056J-1697056D01*
G01*
X111174000Y-82882000D02*
X107774000Y-82882000D01*
X111171056Y-82884944D02*
G75*
G02X109474000Y-86982000I-1697056J-1697056D01*
G01*
X107776944Y-82884944D02*
G75*
G03X109474000Y-86982000I1697056J-1697056D01*
G01*
X142162000Y-70690000D02*
X138762000Y-70690000D01*
X142159056Y-70692944D02*
G75*
G02X140462000Y-74790000I-1697056J-1697056D01*
G01*
X138764944Y-70692944D02*
G75*
G03X140462000Y-74790000I1697056J-1697056D01*
G01*
D13*
X102250000Y-63510000D02*
X98410000Y-63510000D01*
X98410000Y-63510000D02*
X98410000Y-73650000D01*
X98410000Y-73650000D02*
X102250000Y-73650000D01*
X102250000Y-73650000D02*
X102250000Y-63510000D01*
X100330000Y-62400000D02*
X100330000Y-63510000D01*
X100330000Y-74760000D02*
X100330000Y-73650000D01*
X96874000Y-65564000D02*
X94134000Y-65564000D01*
X94134000Y-65564000D02*
X94134000Y-72104000D01*
X94134000Y-72104000D02*
X96874000Y-72104000D01*
X96874000Y-72104000D02*
X96874000Y-65564000D01*
X95504000Y-64794000D02*
X95504000Y-65564000D01*
X95504000Y-72874000D02*
X95504000Y-72104000D01*
X97314000Y-49176000D02*
X97314000Y-51916000D01*
X97314000Y-51916000D02*
X103854000Y-51916000D01*
X103854000Y-51916000D02*
X103854000Y-49176000D01*
X103854000Y-49176000D02*
X97314000Y-49176000D01*
X96544000Y-50546000D02*
X97314000Y-50546000D01*
X104624000Y-50546000D02*
X103854000Y-50546000D01*
X96234000Y-109320000D02*
X96234000Y-106580000D01*
X96234000Y-106580000D02*
X89694000Y-106580000D01*
X89694000Y-106580000D02*
X89694000Y-109320000D01*
X89694000Y-109320000D02*
X96234000Y-109320000D01*
X97004000Y-107950000D02*
X96234000Y-107950000D01*
X88924000Y-107950000D02*
X89694000Y-107950000D01*
X96234000Y-113892000D02*
X96234000Y-111152000D01*
X96234000Y-111152000D02*
X89694000Y-111152000D01*
X89694000Y-111152000D02*
X89694000Y-113892000D01*
X89694000Y-113892000D02*
X96234000Y-113892000D01*
X97004000Y-112522000D02*
X96234000Y-112522000D01*
X88924000Y-112522000D02*
X89694000Y-112522000D01*
X112998000Y-76808000D02*
X112998000Y-74068000D01*
X112998000Y-74068000D02*
X106458000Y-74068000D01*
X106458000Y-74068000D02*
X106458000Y-76808000D01*
X106458000Y-76808000D02*
X112998000Y-76808000D01*
X113768000Y-75438000D02*
X112998000Y-75438000D01*
X105688000Y-75438000D02*
X106458000Y-75438000D01*
X118518000Y-69564000D02*
X121258000Y-69564000D01*
X121258000Y-69564000D02*
X121258000Y-63024000D01*
X121258000Y-63024000D02*
X118518000Y-63024000D01*
X118518000Y-63024000D02*
X118518000Y-69564000D01*
X119888000Y-70334000D02*
X119888000Y-69564000D01*
X119888000Y-62254000D02*
X119888000Y-63024000D01*
X116554000Y-81888000D02*
X116554000Y-79148000D01*
X116554000Y-79148000D02*
X110014000Y-79148000D01*
X110014000Y-79148000D02*
X110014000Y-81888000D01*
X110014000Y-81888000D02*
X116554000Y-81888000D01*
X117324000Y-80518000D02*
X116554000Y-80518000D01*
X109244000Y-80518000D02*
X110014000Y-80518000D01*
X128678000Y-70072000D02*
X131418000Y-70072000D01*
X131418000Y-70072000D02*
X131418000Y-63532000D01*
X131418000Y-63532000D02*
X128678000Y-63532000D01*
X128678000Y-63532000D02*
X128678000Y-70072000D01*
X130048000Y-70842000D02*
X130048000Y-70072000D01*
X130048000Y-62762000D02*
X130048000Y-63532000D01*
X136498000Y-63532000D02*
X133758000Y-63532000D01*
X133758000Y-63532000D02*
X133758000Y-70072000D01*
X133758000Y-70072000D02*
X136498000Y-70072000D01*
X136498000Y-70072000D02*
X136498000Y-63532000D01*
X135128000Y-62762000D02*
X135128000Y-63532000D01*
X135128000Y-70842000D02*
X135128000Y-70072000D01*
X101822000Y-123544000D02*
X101822000Y-120804000D01*
X101822000Y-120804000D02*
X95282000Y-120804000D01*
X95282000Y-120804000D02*
X95282000Y-123544000D01*
X95282000Y-123544000D02*
X101822000Y-123544000D01*
X102592000Y-122174000D02*
X101822000Y-122174000D01*
X94512000Y-122174000D02*
X95282000Y-122174000D01*
X153155000Y-129441000D02*
X142915000Y-129441000D01*
X153155000Y-119400000D02*
X142915000Y-119400000D01*
X153155000Y-129441000D02*
X153155000Y-128346000D01*
X153155000Y-125494000D02*
X153155000Y-123345000D01*
X153155000Y-120495000D02*
X153155000Y-119400000D01*
X142915000Y-129441000D02*
X142915000Y-125845000D01*
X142915000Y-122995000D02*
X142915000Y-119400000D01*
D14*
X159766000Y-48895000D02*
X159766000Y-52324000D01*
X150114000Y-48895000D02*
X150114000Y-52324000D01*
X160274000Y-47752000D02*
X149606000Y-47752000D01*
X156718000Y-48768000D02*
X156718000Y-47498000D01*
X153162000Y-48768000D02*
X153162000Y-47498000D01*
X149606000Y-48895000D02*
X160274000Y-48895000D01*
X160274000Y-52324000D02*
X149606000Y-52324000D01*
X149606000Y-47498000D02*
X149606000Y-52324000D01*
X160274000Y-47498000D02*
X160274000Y-52324000D01*
X160274000Y-47498000D02*
X149606000Y-47498000D01*
D15*
X163880000Y-118180000D02*
X110480000Y-118180000D01*
X110480000Y-118180000D02*
X110480000Y-95180000D01*
X110480000Y-95180000D02*
X163880000Y-95180000D01*
X163880000Y-95180000D02*
X163880000Y-118180000D01*
D14*
X107323000Y-60951000D02*
X107323000Y-62221000D01*
X114673000Y-60951000D02*
X114673000Y-62221000D01*
X114673000Y-73161000D02*
X114673000Y-71891000D01*
X107323000Y-73161000D02*
X107323000Y-71891000D01*
X107323000Y-60951000D02*
X114673000Y-60951000D01*
X107323000Y-73161000D02*
X114673000Y-73161000D01*
X107323000Y-62221000D02*
X106038000Y-62221000D01*
X93345000Y-54610000D02*
G75*
G03X93345000Y-54610000I-6985000J0D01*
G01*
X93345000Y-69850000D02*
G75*
G03X93345000Y-69850000I-6985000J0D01*
G01*
X144145334Y-63265143D02*
X144097715Y-63312762D01*
X143954858Y-63360381D01*
X143859620Y-63360381D01*
X143716762Y-63312762D01*
X143621524Y-63217524D01*
X143573905Y-63122286D01*
X143526286Y-62931810D01*
X143526286Y-62788952D01*
X143573905Y-62598476D01*
X143621524Y-62503238D01*
X143716762Y-62408000D01*
X143859620Y-62360381D01*
X143954858Y-62360381D01*
X144097715Y-62408000D01*
X144145334Y-62455619D01*
X145097715Y-63360381D02*
X144526286Y-63360381D01*
X144812000Y-63360381D02*
X144812000Y-62360381D01*
X144716762Y-62503238D01*
X144621524Y-62598476D01*
X144526286Y-62646095D01*
X144379334Y-68135143D02*
X144331715Y-68182762D01*
X144188858Y-68230381D01*
X144093620Y-68230381D01*
X143950762Y-68182762D01*
X143855524Y-68087524D01*
X143807905Y-67992286D01*
X143760286Y-67801810D01*
X143760286Y-67658952D01*
X143807905Y-67468476D01*
X143855524Y-67373238D01*
X143950762Y-67278000D01*
X144093620Y-67230381D01*
X144188858Y-67230381D01*
X144331715Y-67278000D01*
X144379334Y-67325619D01*
X144760286Y-67325619D02*
X144807905Y-67278000D01*
X144903143Y-67230381D01*
X145141239Y-67230381D01*
X145236477Y-67278000D01*
X145284096Y-67325619D01*
X145331715Y-67420857D01*
X145331715Y-67516095D01*
X145284096Y-67658952D01*
X144712667Y-68230381D01*
X145331715Y-68230381D01*
X111339334Y-57253143D02*
X111291715Y-57300762D01*
X111148858Y-57348381D01*
X111053620Y-57348381D01*
X110910762Y-57300762D01*
X110815524Y-57205524D01*
X110767905Y-57110286D01*
X110720286Y-56919810D01*
X110720286Y-56776952D01*
X110767905Y-56586476D01*
X110815524Y-56491238D01*
X110910762Y-56396000D01*
X111053620Y-56348381D01*
X111148858Y-56348381D01*
X111291715Y-56396000D01*
X111339334Y-56443619D01*
X111672667Y-56348381D02*
X112291715Y-56348381D01*
X111958381Y-56729333D01*
X112101239Y-56729333D01*
X112196477Y-56776952D01*
X112244096Y-56824571D01*
X112291715Y-56919810D01*
X112291715Y-57157905D01*
X112244096Y-57253143D01*
X112196477Y-57300762D01*
X112101239Y-57348381D01*
X111815524Y-57348381D01*
X111720286Y-57300762D01*
X111672667Y-57253143D01*
X158603334Y-68135143D02*
X158555715Y-68182762D01*
X158412858Y-68230381D01*
X158317620Y-68230381D01*
X158174762Y-68182762D01*
X158079524Y-68087524D01*
X158031905Y-67992286D01*
X157984286Y-67801810D01*
X157984286Y-67658952D01*
X158031905Y-67468476D01*
X158079524Y-67373238D01*
X158174762Y-67278000D01*
X158317620Y-67230381D01*
X158412858Y-67230381D01*
X158555715Y-67278000D01*
X158603334Y-67325619D01*
X159460477Y-67563714D02*
X159460477Y-68230381D01*
X159222381Y-67182762D02*
X158984286Y-67897048D01*
X159603334Y-67897048D01*
X157861334Y-63265143D02*
X157813715Y-63312762D01*
X157670858Y-63360381D01*
X157575620Y-63360381D01*
X157432762Y-63312762D01*
X157337524Y-63217524D01*
X157289905Y-63122286D01*
X157242286Y-62931810D01*
X157242286Y-62788952D01*
X157289905Y-62598476D01*
X157337524Y-62503238D01*
X157432762Y-62408000D01*
X157575620Y-62360381D01*
X157670858Y-62360381D01*
X157813715Y-62408000D01*
X157861334Y-62455619D01*
X158766096Y-62360381D02*
X158289905Y-62360381D01*
X158242286Y-62836571D01*
X158289905Y-62788952D01*
X158385143Y-62741333D01*
X158623239Y-62741333D01*
X158718477Y-62788952D01*
X158766096Y-62836571D01*
X158813715Y-62931810D01*
X158813715Y-63169905D01*
X158766096Y-63265143D01*
X158718477Y-63312762D01*
X158623239Y-63360381D01*
X158385143Y-63360381D01*
X158289905Y-63312762D01*
X158242286Y-63265143D01*
X124527334Y-69231143D02*
X124479715Y-69278762D01*
X124336858Y-69326381D01*
X124241620Y-69326381D01*
X124098762Y-69278762D01*
X124003524Y-69183524D01*
X123955905Y-69088286D01*
X123908286Y-68897810D01*
X123908286Y-68754952D01*
X123955905Y-68564476D01*
X124003524Y-68469238D01*
X124098762Y-68374000D01*
X124241620Y-68326381D01*
X124336858Y-68326381D01*
X124479715Y-68374000D01*
X124527334Y-68421619D01*
X125384477Y-68326381D02*
X125194000Y-68326381D01*
X125098762Y-68374000D01*
X125051143Y-68421619D01*
X124955905Y-68564476D01*
X124908286Y-68754952D01*
X124908286Y-69135905D01*
X124955905Y-69231143D01*
X125003524Y-69278762D01*
X125098762Y-69326381D01*
X125289239Y-69326381D01*
X125384477Y-69278762D01*
X125432096Y-69231143D01*
X125479715Y-69135905D01*
X125479715Y-68897810D01*
X125432096Y-68802571D01*
X125384477Y-68754952D01*
X125289239Y-68707333D01*
X125098762Y-68707333D01*
X125003524Y-68754952D01*
X124955905Y-68802571D01*
X124908286Y-68897810D01*
X122237143Y-76346666D02*
X122284762Y-76394285D01*
X122332381Y-76537142D01*
X122332381Y-76632380D01*
X122284762Y-76775238D01*
X122189524Y-76870476D01*
X122094286Y-76918095D01*
X121903810Y-76965714D01*
X121760952Y-76965714D01*
X121570476Y-76918095D01*
X121475238Y-76870476D01*
X121380000Y-76775238D01*
X121332381Y-76632380D01*
X121332381Y-76537142D01*
X121380000Y-76394285D01*
X121427619Y-76346666D01*
X121332381Y-76013333D02*
X121332381Y-75346666D01*
X122332381Y-75775238D01*
X124567334Y-79311143D02*
X124519715Y-79358762D01*
X124376858Y-79406381D01*
X124281620Y-79406381D01*
X124138762Y-79358762D01*
X124043524Y-79263524D01*
X123995905Y-79168286D01*
X123948286Y-78977810D01*
X123948286Y-78834952D01*
X123995905Y-78644476D01*
X124043524Y-78549238D01*
X124138762Y-78454000D01*
X124281620Y-78406381D01*
X124376858Y-78406381D01*
X124519715Y-78454000D01*
X124567334Y-78501619D01*
X125138762Y-78834952D02*
X125043524Y-78787333D01*
X124995905Y-78739714D01*
X124948286Y-78644476D01*
X124948286Y-78596857D01*
X124995905Y-78501619D01*
X125043524Y-78454000D01*
X125138762Y-78406381D01*
X125329239Y-78406381D01*
X125424477Y-78454000D01*
X125472096Y-78501619D01*
X125519715Y-78596857D01*
X125519715Y-78644476D01*
X125472096Y-78739714D01*
X125424477Y-78787333D01*
X125329239Y-78834952D01*
X125138762Y-78834952D01*
X125043524Y-78882571D01*
X124995905Y-78930190D01*
X124948286Y-79025429D01*
X124948286Y-79215905D01*
X124995905Y-79311143D01*
X125043524Y-79358762D01*
X125138762Y-79406381D01*
X125329239Y-79406381D01*
X125424477Y-79358762D01*
X125472096Y-79311143D01*
X125519715Y-79215905D01*
X125519715Y-79025429D01*
X125472096Y-78930190D01*
X125424477Y-78882571D01*
X125329239Y-78834952D01*
X157547334Y-120031143D02*
X157499715Y-120078762D01*
X157356858Y-120126381D01*
X157261620Y-120126381D01*
X157118762Y-120078762D01*
X157023524Y-119983524D01*
X156975905Y-119888286D01*
X156928286Y-119697810D01*
X156928286Y-119554952D01*
X156975905Y-119364476D01*
X157023524Y-119269238D01*
X157118762Y-119174000D01*
X157261620Y-119126381D01*
X157356858Y-119126381D01*
X157499715Y-119174000D01*
X157547334Y-119221619D01*
X158023524Y-120126381D02*
X158214000Y-120126381D01*
X158309239Y-120078762D01*
X158356858Y-120031143D01*
X158452096Y-119888286D01*
X158499715Y-119697810D01*
X158499715Y-119316857D01*
X158452096Y-119221619D01*
X158404477Y-119174000D01*
X158309239Y-119126381D01*
X158118762Y-119126381D01*
X158023524Y-119174000D01*
X157975905Y-119221619D01*
X157928286Y-119316857D01*
X157928286Y-119554952D01*
X157975905Y-119650190D01*
X158023524Y-119697810D01*
X158118762Y-119745429D01*
X158309239Y-119745429D01*
X158404477Y-119697810D01*
X158452096Y-119650190D01*
X158499715Y-119554952D01*
X97559905Y-55062381D02*
X97559905Y-54062381D01*
X97798000Y-54062381D01*
X97940858Y-54110000D01*
X98036096Y-54205238D01*
X98083715Y-54300476D01*
X98131334Y-54490952D01*
X98131334Y-54633810D01*
X98083715Y-54824286D01*
X98036096Y-54919524D01*
X97940858Y-55014762D01*
X97798000Y-55062381D01*
X97559905Y-55062381D01*
X99083715Y-55062381D02*
X98512286Y-55062381D01*
X98798000Y-55062381D02*
X98798000Y-54062381D01*
X98702762Y-54205238D01*
X98607524Y-54300476D01*
X98512286Y-54348095D01*
X102862095Y-56962381D02*
X102862095Y-55962381D01*
X103433524Y-56962381D02*
X103004952Y-56390952D01*
X103433524Y-55962381D02*
X102862095Y-56533810D01*
X85367905Y-103322381D02*
X85367905Y-102322381D01*
X85606000Y-102322381D01*
X85748858Y-102370000D01*
X85844096Y-102465238D01*
X85891715Y-102560476D01*
X85939334Y-102750952D01*
X85939334Y-102893810D01*
X85891715Y-103084286D01*
X85844096Y-103179524D01*
X85748858Y-103274762D01*
X85606000Y-103322381D01*
X85367905Y-103322381D01*
X86320286Y-102417619D02*
X86367905Y-102370000D01*
X86463143Y-102322381D01*
X86701239Y-102322381D01*
X86796477Y-102370000D01*
X86844096Y-102417619D01*
X86891715Y-102512857D01*
X86891715Y-102608095D01*
X86844096Y-102750952D01*
X86272667Y-103322381D01*
X86891715Y-103322381D01*
X82034095Y-101422381D02*
X82034095Y-100422381D01*
X82605524Y-101422381D02*
X82176952Y-100850952D01*
X82605524Y-100422381D02*
X82034095Y-100993810D01*
X97559905Y-105792381D02*
X97559905Y-104792381D01*
X97798000Y-104792381D01*
X97940858Y-104840000D01*
X98036096Y-104935238D01*
X98083715Y-105030476D01*
X98131334Y-105220952D01*
X98131334Y-105363810D01*
X98083715Y-105554286D01*
X98036096Y-105649524D01*
X97940858Y-105744762D01*
X97798000Y-105792381D01*
X97559905Y-105792381D01*
X98464667Y-104792381D02*
X99083715Y-104792381D01*
X98750381Y-105173333D01*
X98893239Y-105173333D01*
X98988477Y-105220952D01*
X99036096Y-105268571D01*
X99083715Y-105363810D01*
X99083715Y-105601905D01*
X99036096Y-105697143D01*
X98988477Y-105744762D01*
X98893239Y-105792381D01*
X98607524Y-105792381D01*
X98512286Y-105744762D01*
X98464667Y-105697143D01*
X101846095Y-105222381D02*
X101846095Y-104222381D01*
X102417524Y-105222381D02*
X101988952Y-104650952D01*
X102417524Y-104222381D02*
X101846095Y-104793810D01*
X116863905Y-86050381D02*
X116863905Y-85050381D01*
X117102000Y-85050381D01*
X117244858Y-85098000D01*
X117340096Y-85193238D01*
X117387715Y-85288476D01*
X117435334Y-85478952D01*
X117435334Y-85621810D01*
X117387715Y-85812286D01*
X117340096Y-85907524D01*
X117244858Y-86002762D01*
X117102000Y-86050381D01*
X116863905Y-86050381D01*
X118292477Y-85383714D02*
X118292477Y-86050381D01*
X118054381Y-85002762D02*
X117816286Y-85717048D01*
X118435334Y-85717048D01*
X121658095Y-87950381D02*
X121658095Y-86950381D01*
X122229524Y-87950381D02*
X121800952Y-87378952D01*
X122229524Y-86950381D02*
X121658095Y-87521810D01*
X117371905Y-93092381D02*
X117371905Y-92092381D01*
X117610000Y-92092381D01*
X117752858Y-92140000D01*
X117848096Y-92235238D01*
X117895715Y-92330476D01*
X117943334Y-92520952D01*
X117943334Y-92663810D01*
X117895715Y-92854286D01*
X117848096Y-92949524D01*
X117752858Y-93044762D01*
X117610000Y-93092381D01*
X117371905Y-93092381D01*
X118848096Y-92092381D02*
X118371905Y-92092381D01*
X118324286Y-92568571D01*
X118371905Y-92520952D01*
X118467143Y-92473333D01*
X118705239Y-92473333D01*
X118800477Y-92520952D01*
X118848096Y-92568571D01*
X118895715Y-92663810D01*
X118895715Y-92901905D01*
X118848096Y-92997143D01*
X118800477Y-93044762D01*
X118705239Y-93092381D01*
X118467143Y-93092381D01*
X118371905Y-93044762D01*
X118324286Y-92997143D01*
X121658095Y-92522381D02*
X121658095Y-91522381D01*
X122229524Y-92522381D02*
X121800952Y-91950952D01*
X122229524Y-91522381D02*
X121658095Y-92093810D01*
X133986381Y-80494095D02*
X132986381Y-80494095D01*
X132986381Y-80256000D01*
X133034000Y-80113142D01*
X133129238Y-80017904D01*
X133224476Y-79970285D01*
X133414952Y-79922666D01*
X133557810Y-79922666D01*
X133748286Y-79970285D01*
X133843524Y-80017904D01*
X133938762Y-80113142D01*
X133986381Y-80256000D01*
X133986381Y-80494095D01*
X132986381Y-79065523D02*
X132986381Y-79256000D01*
X133034000Y-79351238D01*
X133081619Y-79398857D01*
X133224476Y-79494095D01*
X133414952Y-79541714D01*
X133795905Y-79541714D01*
X133891143Y-79494095D01*
X133938762Y-79446476D01*
X133986381Y-79351238D01*
X133986381Y-79160761D01*
X133938762Y-79065523D01*
X133891143Y-79017904D01*
X133795905Y-78970285D01*
X133557810Y-78970285D01*
X133462571Y-79017904D01*
X133414952Y-79065523D01*
X133367333Y-79160761D01*
X133367333Y-79351238D01*
X133414952Y-79446476D01*
X133462571Y-79494095D01*
X133557810Y-79541714D01*
X133416381Y-76207905D02*
X132416381Y-76207905D01*
X133416381Y-75636476D02*
X132844952Y-76065048D01*
X132416381Y-75636476D02*
X132987810Y-76207905D01*
X138707905Y-80392381D02*
X138707905Y-79392381D01*
X138946000Y-79392381D01*
X139088858Y-79440000D01*
X139184096Y-79535238D01*
X139231715Y-79630476D01*
X139279334Y-79820952D01*
X139279334Y-79963810D01*
X139231715Y-80154286D01*
X139184096Y-80249524D01*
X139088858Y-80344762D01*
X138946000Y-80392381D01*
X138707905Y-80392381D01*
X139612667Y-79392381D02*
X140279334Y-79392381D01*
X139850762Y-80392381D01*
X142994095Y-79822381D02*
X142994095Y-78822381D01*
X143565524Y-79822381D02*
X143136952Y-79250952D01*
X143565524Y-78822381D02*
X142994095Y-79393810D01*
X141398667Y-54590381D02*
X141398667Y-55304667D01*
X141351047Y-55447524D01*
X141255809Y-55542762D01*
X141112952Y-55590381D01*
X141017714Y-55590381D01*
X142398667Y-55590381D02*
X141827238Y-55590381D01*
X142112952Y-55590381D02*
X142112952Y-54590381D01*
X142017714Y-54733238D01*
X141922476Y-54828476D01*
X141827238Y-54876095D01*
X108418381Y-91773333D02*
X109132667Y-91773333D01*
X109275524Y-91820953D01*
X109370762Y-91916191D01*
X109418381Y-92059048D01*
X109418381Y-92154286D01*
X108513619Y-91344762D02*
X108466000Y-91297143D01*
X108418381Y-91201905D01*
X108418381Y-90963809D01*
X108466000Y-90868571D01*
X108513619Y-90820952D01*
X108608857Y-90773333D01*
X108704095Y-90773333D01*
X108846952Y-90820952D01*
X109418381Y-91392381D01*
X109418381Y-90773333D01*
X105560762Y-99408762D02*
X105608381Y-99265905D01*
X105608381Y-99027809D01*
X105560762Y-98932571D01*
X105513143Y-98884952D01*
X105417905Y-98837333D01*
X105322667Y-98837333D01*
X105227429Y-98884952D01*
X105179810Y-98932571D01*
X105132190Y-99027809D01*
X105084571Y-99218286D01*
X105036952Y-99313524D01*
X104989333Y-99361143D01*
X104894095Y-99408762D01*
X104798857Y-99408762D01*
X104703619Y-99361143D01*
X104656000Y-99313524D01*
X104608381Y-99218286D01*
X104608381Y-98980190D01*
X104656000Y-98837333D01*
X104608381Y-98504000D02*
X105608381Y-98265905D01*
X104894095Y-98075428D01*
X105608381Y-97884952D01*
X104608381Y-97646857D01*
X105703619Y-97504000D02*
X105703619Y-96742095D01*
X105560762Y-96551619D02*
X105608381Y-96408762D01*
X105608381Y-96170666D01*
X105560762Y-96075428D01*
X105513143Y-96027809D01*
X105417905Y-95980190D01*
X105322667Y-95980190D01*
X105227429Y-96027809D01*
X105179810Y-96075428D01*
X105132190Y-96170666D01*
X105084571Y-96361143D01*
X105036952Y-96456381D01*
X104989333Y-96504000D01*
X104894095Y-96551619D01*
X104798857Y-96551619D01*
X104703619Y-96504000D01*
X104656000Y-96456381D01*
X104608381Y-96361143D01*
X104608381Y-96123047D01*
X104656000Y-95980190D01*
X105084571Y-95551619D02*
X105084571Y-95218285D01*
X105608381Y-95075428D02*
X105608381Y-95551619D01*
X104608381Y-95551619D01*
X104608381Y-95075428D01*
X105608381Y-94170666D02*
X105608381Y-94646857D01*
X104608381Y-94646857D01*
X105084571Y-93837333D02*
X105084571Y-93503999D01*
X105608381Y-93361142D02*
X105608381Y-93837333D01*
X104608381Y-93837333D01*
X104608381Y-93361142D01*
X105513143Y-92361142D02*
X105560762Y-92408761D01*
X105608381Y-92551618D01*
X105608381Y-92646856D01*
X105560762Y-92789714D01*
X105465524Y-92884952D01*
X105370286Y-92932571D01*
X105179810Y-92980190D01*
X105036952Y-92980190D01*
X104846476Y-92932571D01*
X104751238Y-92884952D01*
X104656000Y-92789714D01*
X104608381Y-92646856D01*
X104608381Y-92551618D01*
X104656000Y-92408761D01*
X104703619Y-92361142D01*
X104608381Y-92075428D02*
X104608381Y-91503999D01*
X105608381Y-91789714D02*
X104608381Y-91789714D01*
X139620667Y-89114381D02*
X139620667Y-89828667D01*
X139573047Y-89971524D01*
X139477809Y-90066762D01*
X139334952Y-90114381D01*
X139239714Y-90114381D01*
X140001619Y-89114381D02*
X140620667Y-89114381D01*
X140287333Y-89495333D01*
X140430191Y-89495333D01*
X140525429Y-89542952D01*
X140573048Y-89590571D01*
X140620667Y-89685810D01*
X140620667Y-89923905D01*
X140573048Y-90019143D01*
X140525429Y-90066762D01*
X140430191Y-90114381D01*
X140144476Y-90114381D01*
X140049238Y-90066762D01*
X140001619Y-90019143D01*
X143947143Y-92098762D02*
X144090000Y-92146381D01*
X144328096Y-92146381D01*
X144423334Y-92098762D01*
X144470953Y-92051143D01*
X144518572Y-91955905D01*
X144518572Y-91860667D01*
X144470953Y-91765429D01*
X144423334Y-91717810D01*
X144328096Y-91670190D01*
X144137619Y-91622571D01*
X144042381Y-91574952D01*
X143994762Y-91527333D01*
X143947143Y-91432095D01*
X143947143Y-91336857D01*
X143994762Y-91241619D01*
X144042381Y-91194000D01*
X144137619Y-91146381D01*
X144375715Y-91146381D01*
X144518572Y-91194000D01*
X144851905Y-91146381D02*
X145090000Y-92146381D01*
X145280477Y-91432095D01*
X145470953Y-92146381D01*
X145709048Y-91146381D01*
X145851905Y-92241619D02*
X146613810Y-92241619D01*
X146851905Y-92146381D02*
X146851905Y-91146381D01*
X147185239Y-91860667D01*
X147518572Y-91146381D01*
X147518572Y-92146381D01*
X147994762Y-91622571D02*
X148328096Y-91622571D01*
X148470953Y-92146381D02*
X147994762Y-92146381D01*
X147994762Y-91146381D01*
X148470953Y-91146381D01*
X148851905Y-91860667D02*
X149328096Y-91860667D01*
X148756667Y-92146381D02*
X149090000Y-91146381D01*
X149423334Y-92146381D01*
X149709048Y-92098762D02*
X149851905Y-92146381D01*
X150090001Y-92146381D01*
X150185239Y-92098762D01*
X150232858Y-92051143D01*
X150280477Y-91955905D01*
X150280477Y-91860667D01*
X150232858Y-91765429D01*
X150185239Y-91717810D01*
X150090001Y-91670190D01*
X149899524Y-91622571D01*
X149804286Y-91574952D01*
X149756667Y-91527333D01*
X149709048Y-91432095D01*
X149709048Y-91336857D01*
X149756667Y-91241619D01*
X149804286Y-91194000D01*
X149899524Y-91146381D01*
X150137620Y-91146381D01*
X150280477Y-91194000D01*
X150709048Y-91146381D02*
X150709048Y-91955905D01*
X150756667Y-92051143D01*
X150804286Y-92098762D01*
X150899524Y-92146381D01*
X151090001Y-92146381D01*
X151185239Y-92098762D01*
X151232858Y-92051143D01*
X151280477Y-91955905D01*
X151280477Y-91146381D01*
X152328096Y-92146381D02*
X151994762Y-91670190D01*
X151756667Y-92146381D02*
X151756667Y-91146381D01*
X152137620Y-91146381D01*
X152232858Y-91194000D01*
X152280477Y-91241619D01*
X152328096Y-91336857D01*
X152328096Y-91479714D01*
X152280477Y-91574952D01*
X152232858Y-91622571D01*
X152137620Y-91670190D01*
X151756667Y-91670190D01*
X152756667Y-91622571D02*
X153090001Y-91622571D01*
X153232858Y-92146381D02*
X152756667Y-92146381D01*
X152756667Y-91146381D01*
X153232858Y-91146381D01*
X80468381Y-90244095D02*
X79468381Y-90244095D01*
X80468381Y-89672666D02*
X79896952Y-90101238D01*
X79468381Y-89672666D02*
X80039810Y-90244095D01*
X80468381Y-88720285D02*
X80468381Y-89291714D01*
X80468381Y-89006000D02*
X79468381Y-89006000D01*
X79611238Y-89101238D01*
X79706476Y-89196476D01*
X79754095Y-89291714D01*
X95956381Y-89384095D02*
X94956381Y-89384095D01*
X95956381Y-88812666D02*
X95384952Y-89241238D01*
X94956381Y-88812666D02*
X95527810Y-89384095D01*
X95051619Y-88431714D02*
X95004000Y-88384095D01*
X94956381Y-88288857D01*
X94956381Y-88050761D01*
X95004000Y-87955523D01*
X95051619Y-87907904D01*
X95146857Y-87860285D01*
X95242095Y-87860285D01*
X95384952Y-87907904D01*
X95956381Y-88479333D01*
X95956381Y-87860285D01*
X136850381Y-123420095D02*
X135850381Y-123420095D01*
X135850381Y-123039142D01*
X135898000Y-122943904D01*
X135945619Y-122896285D01*
X136040857Y-122848666D01*
X136183714Y-122848666D01*
X136278952Y-122896285D01*
X136326571Y-122943904D01*
X136374190Y-123039142D01*
X136374190Y-123420095D01*
X135850381Y-122515333D02*
X135850381Y-121896285D01*
X136231333Y-122229619D01*
X136231333Y-122086761D01*
X136278952Y-121991523D01*
X136326571Y-121943904D01*
X136421810Y-121896285D01*
X136659905Y-121896285D01*
X136755143Y-121943904D01*
X136802762Y-121991523D01*
X136850381Y-122086761D01*
X136850381Y-122372476D01*
X136802762Y-122467714D01*
X136755143Y-122515333D01*
X89332381Y-126468095D02*
X88332381Y-126468095D01*
X88332381Y-126087142D01*
X88380000Y-125991904D01*
X88427619Y-125944285D01*
X88522857Y-125896666D01*
X88665714Y-125896666D01*
X88760952Y-125944285D01*
X88808571Y-125991904D01*
X88856190Y-126087142D01*
X88856190Y-126468095D01*
X88665714Y-125039523D02*
X89332381Y-125039523D01*
X88284762Y-125277619D02*
X88999048Y-125515714D01*
X88999048Y-124896666D01*
X90332381Y-127325238D02*
X91141905Y-127325238D01*
X91237143Y-127277619D01*
X91284762Y-127230000D01*
X91332381Y-127134762D01*
X91332381Y-126944285D01*
X91284762Y-126849047D01*
X91237143Y-126801428D01*
X91141905Y-126753809D01*
X90332381Y-126753809D01*
X91046667Y-126325238D02*
X91046667Y-125849047D01*
X91332381Y-126420476D02*
X90332381Y-126087143D01*
X91332381Y-125753809D01*
X91332381Y-124849047D02*
X90856190Y-125182381D01*
X91332381Y-125420476D02*
X90332381Y-125420476D01*
X90332381Y-125039523D01*
X90380000Y-124944285D01*
X90427619Y-124896666D01*
X90522857Y-124849047D01*
X90665714Y-124849047D01*
X90760952Y-124896666D01*
X90808571Y-124944285D01*
X90856190Y-125039523D01*
X90856190Y-125420476D01*
X90332381Y-124563333D02*
X90332381Y-123991904D01*
X91332381Y-124277619D02*
X90332381Y-124277619D01*
X87923619Y-105759238D02*
X87876000Y-105854476D01*
X87780762Y-105949714D01*
X87637905Y-106092571D01*
X87590286Y-106187810D01*
X87590286Y-106283048D01*
X87828381Y-106235429D02*
X87780762Y-106330667D01*
X87685524Y-106425905D01*
X87495048Y-106473524D01*
X87161714Y-106473524D01*
X86971238Y-106425905D01*
X86876000Y-106330667D01*
X86828381Y-106235429D01*
X86828381Y-106044952D01*
X86876000Y-105949714D01*
X86971238Y-105854476D01*
X87161714Y-105806857D01*
X87495048Y-105806857D01*
X87685524Y-105854476D01*
X87780762Y-105949714D01*
X87828381Y-106044952D01*
X87828381Y-106235429D01*
X87828381Y-104854476D02*
X87828381Y-105425905D01*
X87828381Y-105140191D02*
X86828381Y-105140191D01*
X86971238Y-105235429D01*
X87066476Y-105330667D01*
X87114095Y-105425905D01*
X114204762Y-50331619D02*
X114109524Y-50284000D01*
X114014286Y-50188762D01*
X113871429Y-50045905D01*
X113776190Y-49998286D01*
X113680952Y-49998286D01*
X113728571Y-50236381D02*
X113633333Y-50188762D01*
X113538095Y-50093524D01*
X113490476Y-49903048D01*
X113490476Y-49569714D01*
X113538095Y-49379238D01*
X113633333Y-49284000D01*
X113728571Y-49236381D01*
X113919048Y-49236381D01*
X114014286Y-49284000D01*
X114109524Y-49379238D01*
X114157143Y-49569714D01*
X114157143Y-49903048D01*
X114109524Y-50093524D01*
X114014286Y-50188762D01*
X113919048Y-50236381D01*
X113728571Y-50236381D01*
X114538095Y-49331619D02*
X114585714Y-49284000D01*
X114680952Y-49236381D01*
X114919048Y-49236381D01*
X115014286Y-49284000D01*
X115061905Y-49331619D01*
X115109524Y-49426857D01*
X115109524Y-49522095D01*
X115061905Y-49664952D01*
X114490476Y-50236381D01*
X115109524Y-50236381D01*
X84367619Y-118205238D02*
X84320000Y-118300476D01*
X84224762Y-118395714D01*
X84081905Y-118538571D01*
X84034286Y-118633810D01*
X84034286Y-118729048D01*
X84272381Y-118681429D02*
X84224762Y-118776667D01*
X84129524Y-118871905D01*
X83939048Y-118919524D01*
X83605714Y-118919524D01*
X83415238Y-118871905D01*
X83320000Y-118776667D01*
X83272381Y-118681429D01*
X83272381Y-118490952D01*
X83320000Y-118395714D01*
X83415238Y-118300476D01*
X83605714Y-118252857D01*
X83939048Y-118252857D01*
X84129524Y-118300476D01*
X84224762Y-118395714D01*
X84272381Y-118490952D01*
X84272381Y-118681429D01*
X83272381Y-117919524D02*
X83272381Y-117300476D01*
X83653333Y-117633810D01*
X83653333Y-117490952D01*
X83700952Y-117395714D01*
X83748571Y-117348095D01*
X83843810Y-117300476D01*
X84081905Y-117300476D01*
X84177143Y-117348095D01*
X84224762Y-117395714D01*
X84272381Y-117490952D01*
X84272381Y-117776667D01*
X84224762Y-117871905D01*
X84177143Y-117919524D01*
X121570762Y-54395619D02*
X121475524Y-54348000D01*
X121380286Y-54252762D01*
X121237429Y-54109905D01*
X121142190Y-54062286D01*
X121046952Y-54062286D01*
X121094571Y-54300381D02*
X120999333Y-54252762D01*
X120904095Y-54157524D01*
X120856476Y-53967048D01*
X120856476Y-53633714D01*
X120904095Y-53443238D01*
X120999333Y-53348000D01*
X121094571Y-53300381D01*
X121285048Y-53300381D01*
X121380286Y-53348000D01*
X121475524Y-53443238D01*
X121523143Y-53633714D01*
X121523143Y-53967048D01*
X121475524Y-54157524D01*
X121380286Y-54252762D01*
X121285048Y-54300381D01*
X121094571Y-54300381D01*
X122380286Y-53633714D02*
X122380286Y-54300381D01*
X122142190Y-53252762D02*
X121904095Y-53967048D01*
X122523143Y-53967048D01*
X110648762Y-89129619D02*
X110553524Y-89082000D01*
X110458286Y-88986762D01*
X110315429Y-88843905D01*
X110220190Y-88796286D01*
X110124952Y-88796286D01*
X110172571Y-89034381D02*
X110077333Y-88986762D01*
X109982095Y-88891524D01*
X109934476Y-88701048D01*
X109934476Y-88367714D01*
X109982095Y-88177238D01*
X110077333Y-88082000D01*
X110172571Y-88034381D01*
X110363048Y-88034381D01*
X110458286Y-88082000D01*
X110553524Y-88177238D01*
X110601143Y-88367714D01*
X110601143Y-88701048D01*
X110553524Y-88891524D01*
X110458286Y-88986762D01*
X110363048Y-89034381D01*
X110172571Y-89034381D01*
X111505905Y-88034381D02*
X111029714Y-88034381D01*
X110982095Y-88510571D01*
X111029714Y-88462952D01*
X111124952Y-88415333D01*
X111363048Y-88415333D01*
X111458286Y-88462952D01*
X111505905Y-88510571D01*
X111553524Y-88605810D01*
X111553524Y-88843905D01*
X111505905Y-88939143D01*
X111458286Y-88986762D01*
X111363048Y-89034381D01*
X111124952Y-89034381D01*
X111029714Y-88986762D01*
X110982095Y-88939143D01*
X144176762Y-71921619D02*
X144081524Y-71874000D01*
X143986286Y-71778762D01*
X143843429Y-71635905D01*
X143748190Y-71588286D01*
X143652952Y-71588286D01*
X143700571Y-71826381D02*
X143605333Y-71778762D01*
X143510095Y-71683524D01*
X143462476Y-71493048D01*
X143462476Y-71159714D01*
X143510095Y-70969238D01*
X143605333Y-70874000D01*
X143700571Y-70826381D01*
X143891048Y-70826381D01*
X143986286Y-70874000D01*
X144081524Y-70969238D01*
X144129143Y-71159714D01*
X144129143Y-71493048D01*
X144081524Y-71683524D01*
X143986286Y-71778762D01*
X143891048Y-71826381D01*
X143700571Y-71826381D01*
X144986286Y-70826381D02*
X144795809Y-70826381D01*
X144700571Y-70874000D01*
X144652952Y-70921619D01*
X144557714Y-71064476D01*
X144510095Y-71254952D01*
X144510095Y-71635905D01*
X144557714Y-71731143D01*
X144605333Y-71778762D01*
X144700571Y-71826381D01*
X144891048Y-71826381D01*
X144986286Y-71778762D01*
X145033905Y-71731143D01*
X145081524Y-71635905D01*
X145081524Y-71397810D01*
X145033905Y-71302571D01*
X144986286Y-71254952D01*
X144891048Y-71207333D01*
X144700571Y-71207333D01*
X144605333Y-71254952D01*
X144557714Y-71302571D01*
X144510095Y-71397810D01*
X103702381Y-68746666D02*
X103226190Y-69080000D01*
X103702381Y-69318095D02*
X102702381Y-69318095D01*
X102702381Y-68937142D01*
X102750000Y-68841904D01*
X102797619Y-68794285D01*
X102892857Y-68746666D01*
X103035714Y-68746666D01*
X103130952Y-68794285D01*
X103178571Y-68841904D01*
X103226190Y-68937142D01*
X103226190Y-69318095D01*
X103702381Y-67794285D02*
X103702381Y-68365714D01*
X103702381Y-68080000D02*
X102702381Y-68080000D01*
X102845238Y-68175238D01*
X102940476Y-68270476D01*
X102988095Y-68365714D01*
X98326381Y-69000666D02*
X97850190Y-69334000D01*
X98326381Y-69572095D02*
X97326381Y-69572095D01*
X97326381Y-69191142D01*
X97374000Y-69095904D01*
X97421619Y-69048285D01*
X97516857Y-69000666D01*
X97659714Y-69000666D01*
X97754952Y-69048285D01*
X97802571Y-69095904D01*
X97850190Y-69191142D01*
X97850190Y-69572095D01*
X97421619Y-68619714D02*
X97374000Y-68572095D01*
X97326381Y-68476857D01*
X97326381Y-68238761D01*
X97374000Y-68143523D01*
X97421619Y-68095904D01*
X97516857Y-68048285D01*
X97612095Y-68048285D01*
X97754952Y-68095904D01*
X98326381Y-68667333D01*
X98326381Y-68048285D01*
X102449334Y-50998381D02*
X102116000Y-50522190D01*
X101877905Y-50998381D02*
X101877905Y-49998381D01*
X102258858Y-49998381D01*
X102354096Y-50046000D01*
X102401715Y-50093619D01*
X102449334Y-50188857D01*
X102449334Y-50331714D01*
X102401715Y-50426952D01*
X102354096Y-50474571D01*
X102258858Y-50522190D01*
X101877905Y-50522190D01*
X102782667Y-49998381D02*
X103401715Y-49998381D01*
X103068381Y-50379333D01*
X103211239Y-50379333D01*
X103306477Y-50426952D01*
X103354096Y-50474571D01*
X103401715Y-50569810D01*
X103401715Y-50807905D01*
X103354096Y-50903143D01*
X103306477Y-50950762D01*
X103211239Y-50998381D01*
X102925524Y-50998381D01*
X102830286Y-50950762D01*
X102782667Y-50903143D01*
X92797334Y-110772381D02*
X92464000Y-110296190D01*
X92225905Y-110772381D02*
X92225905Y-109772381D01*
X92606858Y-109772381D01*
X92702096Y-109820000D01*
X92749715Y-109867619D01*
X92797334Y-109962857D01*
X92797334Y-110105714D01*
X92749715Y-110200952D01*
X92702096Y-110248571D01*
X92606858Y-110296190D01*
X92225905Y-110296190D01*
X93654477Y-110105714D02*
X93654477Y-110772381D01*
X93416381Y-109724762D02*
X93178286Y-110439048D01*
X93797334Y-110439048D01*
X92797334Y-115344381D02*
X92464000Y-114868190D01*
X92225905Y-115344381D02*
X92225905Y-114344381D01*
X92606858Y-114344381D01*
X92702096Y-114392000D01*
X92749715Y-114439619D01*
X92797334Y-114534857D01*
X92797334Y-114677714D01*
X92749715Y-114772952D01*
X92702096Y-114820571D01*
X92606858Y-114868190D01*
X92225905Y-114868190D01*
X93702096Y-114344381D02*
X93225905Y-114344381D01*
X93178286Y-114820571D01*
X93225905Y-114772952D01*
X93321143Y-114725333D01*
X93559239Y-114725333D01*
X93654477Y-114772952D01*
X93702096Y-114820571D01*
X93749715Y-114915810D01*
X93749715Y-115153905D01*
X93702096Y-115249143D01*
X93654477Y-115296762D01*
X93559239Y-115344381D01*
X93321143Y-115344381D01*
X93225905Y-115296762D01*
X93178286Y-115249143D01*
X109561334Y-78260381D02*
X109228000Y-77784190D01*
X108989905Y-78260381D02*
X108989905Y-77260381D01*
X109370858Y-77260381D01*
X109466096Y-77308000D01*
X109513715Y-77355619D01*
X109561334Y-77450857D01*
X109561334Y-77593714D01*
X109513715Y-77688952D01*
X109466096Y-77736571D01*
X109370858Y-77784190D01*
X108989905Y-77784190D01*
X110418477Y-77260381D02*
X110228000Y-77260381D01*
X110132762Y-77308000D01*
X110085143Y-77355619D01*
X109989905Y-77498476D01*
X109942286Y-77688952D01*
X109942286Y-78069905D01*
X109989905Y-78165143D01*
X110037524Y-78212762D01*
X110132762Y-78260381D01*
X110323239Y-78260381D01*
X110418477Y-78212762D01*
X110466096Y-78165143D01*
X110513715Y-78069905D01*
X110513715Y-77831810D01*
X110466096Y-77736571D01*
X110418477Y-77688952D01*
X110323239Y-77641333D01*
X110132762Y-77641333D01*
X110037524Y-77688952D01*
X109989905Y-77736571D01*
X109942286Y-77831810D01*
X117970381Y-66460666D02*
X117494190Y-66794000D01*
X117970381Y-67032095D02*
X116970381Y-67032095D01*
X116970381Y-66651142D01*
X117018000Y-66555904D01*
X117065619Y-66508285D01*
X117160857Y-66460666D01*
X117303714Y-66460666D01*
X117398952Y-66508285D01*
X117446571Y-66555904D01*
X117494190Y-66651142D01*
X117494190Y-67032095D01*
X116970381Y-66127333D02*
X116970381Y-65460666D01*
X117970381Y-65889238D01*
X113117334Y-83340381D02*
X112784000Y-82864190D01*
X112545905Y-83340381D02*
X112545905Y-82340381D01*
X112926858Y-82340381D01*
X113022096Y-82388000D01*
X113069715Y-82435619D01*
X113117334Y-82530857D01*
X113117334Y-82673714D01*
X113069715Y-82768952D01*
X113022096Y-82816571D01*
X112926858Y-82864190D01*
X112545905Y-82864190D01*
X113688762Y-82768952D02*
X113593524Y-82721333D01*
X113545905Y-82673714D01*
X113498286Y-82578476D01*
X113498286Y-82530857D01*
X113545905Y-82435619D01*
X113593524Y-82388000D01*
X113688762Y-82340381D01*
X113879239Y-82340381D01*
X113974477Y-82388000D01*
X114022096Y-82435619D01*
X114069715Y-82530857D01*
X114069715Y-82578476D01*
X114022096Y-82673714D01*
X113974477Y-82721333D01*
X113879239Y-82768952D01*
X113688762Y-82768952D01*
X113593524Y-82816571D01*
X113545905Y-82864190D01*
X113498286Y-82959429D01*
X113498286Y-83149905D01*
X113545905Y-83245143D01*
X113593524Y-83292762D01*
X113688762Y-83340381D01*
X113879239Y-83340381D01*
X113974477Y-83292762D01*
X114022096Y-83245143D01*
X114069715Y-83149905D01*
X114069715Y-82959429D01*
X114022096Y-82864190D01*
X113974477Y-82816571D01*
X113879239Y-82768952D01*
X128130381Y-66968666D02*
X127654190Y-67302000D01*
X128130381Y-67540095D02*
X127130381Y-67540095D01*
X127130381Y-67159142D01*
X127178000Y-67063904D01*
X127225619Y-67016285D01*
X127320857Y-66968666D01*
X127463714Y-66968666D01*
X127558952Y-67016285D01*
X127606571Y-67063904D01*
X127654190Y-67159142D01*
X127654190Y-67540095D01*
X128130381Y-66492476D02*
X128130381Y-66302000D01*
X128082762Y-66206761D01*
X128035143Y-66159142D01*
X127892286Y-66063904D01*
X127701810Y-66016285D01*
X127320857Y-66016285D01*
X127225619Y-66063904D01*
X127178000Y-66111523D01*
X127130381Y-66206761D01*
X127130381Y-66397238D01*
X127178000Y-66492476D01*
X127225619Y-66540095D01*
X127320857Y-66587714D01*
X127558952Y-66587714D01*
X127654190Y-66540095D01*
X127701810Y-66492476D01*
X127749429Y-66397238D01*
X127749429Y-66206761D01*
X127701810Y-66111523D01*
X127654190Y-66063904D01*
X127558952Y-66016285D01*
X137950381Y-67444857D02*
X137474190Y-67778191D01*
X137950381Y-68016286D02*
X136950381Y-68016286D01*
X136950381Y-67635333D01*
X136998000Y-67540095D01*
X137045619Y-67492476D01*
X137140857Y-67444857D01*
X137283714Y-67444857D01*
X137378952Y-67492476D01*
X137426571Y-67540095D01*
X137474190Y-67635333D01*
X137474190Y-68016286D01*
X137950381Y-66492476D02*
X137950381Y-67063905D01*
X137950381Y-66778191D02*
X136950381Y-66778191D01*
X137093238Y-66873429D01*
X137188476Y-66968667D01*
X137236095Y-67063905D01*
X136950381Y-65873429D02*
X136950381Y-65778190D01*
X136998000Y-65682952D01*
X137045619Y-65635333D01*
X137140857Y-65587714D01*
X137331333Y-65540095D01*
X137569429Y-65540095D01*
X137759905Y-65587714D01*
X137855143Y-65635333D01*
X137902762Y-65682952D01*
X137950381Y-65778190D01*
X137950381Y-65873429D01*
X137902762Y-65968667D01*
X137855143Y-66016286D01*
X137759905Y-66063905D01*
X137569429Y-66111524D01*
X137331333Y-66111524D01*
X137140857Y-66063905D01*
X137045619Y-66016286D01*
X136998000Y-65968667D01*
X136950381Y-65873429D01*
X97909143Y-122626381D02*
X97575809Y-122150190D01*
X97337714Y-122626381D02*
X97337714Y-121626381D01*
X97718667Y-121626381D01*
X97813905Y-121674000D01*
X97861524Y-121721619D01*
X97909143Y-121816857D01*
X97909143Y-121959714D01*
X97861524Y-122054952D01*
X97813905Y-122102571D01*
X97718667Y-122150190D01*
X97337714Y-122150190D01*
X98861524Y-122626381D02*
X98290095Y-122626381D01*
X98575809Y-122626381D02*
X98575809Y-121626381D01*
X98480571Y-121769238D01*
X98385333Y-121864476D01*
X98290095Y-121912095D01*
X99813905Y-122626381D02*
X99242476Y-122626381D01*
X99528190Y-122626381D02*
X99528190Y-121626381D01*
X99432952Y-121769238D01*
X99337714Y-121864476D01*
X99242476Y-121912095D01*
X146216762Y-128214381D02*
X145883428Y-127738190D01*
X145645333Y-128214381D02*
X145645333Y-127214381D01*
X146026286Y-127214381D01*
X146121524Y-127262000D01*
X146169143Y-127309619D01*
X146216762Y-127404857D01*
X146216762Y-127547714D01*
X146169143Y-127642952D01*
X146121524Y-127690571D01*
X146026286Y-127738190D01*
X145645333Y-127738190D01*
X146502476Y-127214381D02*
X146835809Y-128214381D01*
X147169143Y-127214381D01*
X148026286Y-128214381D02*
X147454857Y-128214381D01*
X147740571Y-128214381D02*
X147740571Y-127214381D01*
X147645333Y-127357238D01*
X147550095Y-127452476D01*
X147454857Y-127500095D01*
X160782095Y-49236381D02*
X160782095Y-50045905D01*
X160829714Y-50141143D01*
X160877333Y-50188762D01*
X160972571Y-50236381D01*
X161163048Y-50236381D01*
X161258286Y-50188762D01*
X161305905Y-50141143D01*
X161353524Y-50045905D01*
X161353524Y-49236381D01*
X162353524Y-50236381D02*
X161782095Y-50236381D01*
X162067809Y-50236381D02*
X162067809Y-49236381D01*
X161972571Y-49379238D01*
X161877333Y-49474476D01*
X161782095Y-49522095D01*
D16*
X111196967Y-106900133D02*
X111916633Y-106900133D01*
X112001300Y-106857800D01*
X112043633Y-106815467D01*
X112085967Y-106730800D01*
X112085967Y-106561467D01*
X112043633Y-106476800D01*
X112001300Y-106434467D01*
X111916633Y-106392133D01*
X111196967Y-106392133D01*
X111196967Y-106053467D02*
X111196967Y-105503134D01*
X111535633Y-105799467D01*
X111535633Y-105672467D01*
X111577967Y-105587800D01*
X111620300Y-105545467D01*
X111704967Y-105503134D01*
X111916633Y-105503134D01*
X112001300Y-105545467D01*
X112043633Y-105587800D01*
X112085967Y-105672467D01*
X112085967Y-105926467D01*
X112043633Y-106011134D01*
X112001300Y-106053467D01*
D15*
D16*
X130865033Y-106972100D02*
X130992033Y-107014433D01*
X131034366Y-107056767D01*
X131076700Y-107141433D01*
X131076700Y-107268433D01*
X131034366Y-107353100D01*
X130992033Y-107395433D01*
X130907366Y-107437767D01*
X130568700Y-107437767D01*
X130568700Y-106548767D01*
X130865033Y-106548767D01*
X130949700Y-106591100D01*
X130992033Y-106633433D01*
X131034366Y-106718100D01*
X131034366Y-106802767D01*
X130992033Y-106887433D01*
X130949700Y-106929767D01*
X130865033Y-106972100D01*
X130568700Y-106972100D01*
X131584700Y-107437767D02*
X131500033Y-107395433D01*
X131457700Y-107310767D01*
X131457700Y-106548767D01*
X132304367Y-106845100D02*
X132304367Y-107437767D01*
X131923367Y-106845100D02*
X131923367Y-107310767D01*
X131965700Y-107395433D01*
X132050367Y-107437767D01*
X132177367Y-107437767D01*
X132262033Y-107395433D01*
X132304367Y-107353100D01*
X133066366Y-107395433D02*
X132981700Y-107437767D01*
X132812366Y-107437767D01*
X132727700Y-107395433D01*
X132685366Y-107310767D01*
X132685366Y-106972100D01*
X132727700Y-106887433D01*
X132812366Y-106845100D01*
X132981700Y-106845100D01*
X133066366Y-106887433D01*
X133108700Y-106972100D01*
X133108700Y-107056767D01*
X132685366Y-107141433D01*
X133489700Y-107437767D02*
X133489700Y-106548767D01*
X133828366Y-106548767D01*
X133913033Y-106591100D01*
X133955366Y-106633433D01*
X133997700Y-106718100D01*
X133997700Y-106845100D01*
X133955366Y-106929767D01*
X133913033Y-106972100D01*
X133828366Y-107014433D01*
X133489700Y-107014433D01*
X134378700Y-107437767D02*
X134378700Y-106845100D01*
X134378700Y-106548767D02*
X134336366Y-106591100D01*
X134378700Y-106633433D01*
X134421033Y-106591100D01*
X134378700Y-106548767D01*
X134378700Y-106633433D01*
X134929033Y-107437767D02*
X134844366Y-107395433D01*
X134802033Y-107310767D01*
X134802033Y-106548767D01*
X135394700Y-107437767D02*
X135310033Y-107395433D01*
X135267700Y-107310767D01*
X135267700Y-106548767D01*
X135521700Y-107522433D02*
X136199033Y-107522433D01*
X136368366Y-107395433D02*
X136495366Y-107437767D01*
X136707033Y-107437767D01*
X136791700Y-107395433D01*
X136834033Y-107353100D01*
X136876366Y-107268433D01*
X136876366Y-107183767D01*
X136834033Y-107099100D01*
X136791700Y-107056767D01*
X136707033Y-107014433D01*
X136537700Y-106972100D01*
X136453033Y-106929767D01*
X136410700Y-106887433D01*
X136368366Y-106802767D01*
X136368366Y-106718100D01*
X136410700Y-106633433D01*
X136453033Y-106591100D01*
X136537700Y-106548767D01*
X136749366Y-106548767D01*
X136876366Y-106591100D01*
X137130367Y-106548767D02*
X137638367Y-106548767D01*
X137384367Y-107437767D02*
X137384367Y-106548767D01*
X137934700Y-107437767D02*
X137934700Y-106548767D01*
X138231033Y-107183767D01*
X138527366Y-106548767D01*
X138527366Y-107437767D01*
X138866033Y-106548767D02*
X139416366Y-106548767D01*
X139120033Y-106887433D01*
X139247033Y-106887433D01*
X139331700Y-106929767D01*
X139374033Y-106972100D01*
X139416366Y-107056767D01*
X139416366Y-107268433D01*
X139374033Y-107353100D01*
X139331700Y-107395433D01*
X139247033Y-107437767D01*
X138993033Y-107437767D01*
X138908366Y-107395433D01*
X138866033Y-107353100D01*
X139755033Y-106633433D02*
X139797367Y-106591100D01*
X139882033Y-106548767D01*
X140093700Y-106548767D01*
X140178367Y-106591100D01*
X140220700Y-106633433D01*
X140263033Y-106718100D01*
X140263033Y-106802767D01*
X140220700Y-106929767D01*
X139712700Y-107437767D01*
X140263033Y-107437767D01*
X140940367Y-106972100D02*
X140644034Y-106972100D01*
X140644034Y-107437767D02*
X140644034Y-106548767D01*
X141067367Y-106548767D01*
X141871700Y-107437767D02*
X141363700Y-107437767D01*
X141617700Y-107437767D02*
X141617700Y-106548767D01*
X141533034Y-106675767D01*
X141448367Y-106760433D01*
X141363700Y-106802767D01*
X142422034Y-106548767D02*
X142506701Y-106548767D01*
X142591367Y-106591100D01*
X142633701Y-106633433D01*
X142676034Y-106718100D01*
X142718367Y-106887433D01*
X142718367Y-107099100D01*
X142676034Y-107268433D01*
X142633701Y-107353100D01*
X142591367Y-107395433D01*
X142506701Y-107437767D01*
X142422034Y-107437767D01*
X142337367Y-107395433D01*
X142295034Y-107353100D01*
X142252701Y-107268433D01*
X142210367Y-107099100D01*
X142210367Y-106887433D01*
X142252701Y-106718100D01*
X142295034Y-106633433D01*
X142337367Y-106591100D01*
X142422034Y-106548767D01*
X143014701Y-106548767D02*
X143565034Y-106548767D01*
X143268701Y-106887433D01*
X143395701Y-106887433D01*
X143480368Y-106929767D01*
X143522701Y-106972100D01*
X143565034Y-107056767D01*
X143565034Y-107268433D01*
X143522701Y-107353100D01*
X143480368Y-107395433D01*
X143395701Y-107437767D01*
X143141701Y-107437767D01*
X143057034Y-107395433D01*
X143014701Y-107353100D01*
X144454035Y-107353100D02*
X144411701Y-107395433D01*
X144284701Y-107437767D01*
X144200035Y-107437767D01*
X144073035Y-107395433D01*
X143988368Y-107310767D01*
X143946035Y-107226100D01*
X143903701Y-107056767D01*
X143903701Y-106929767D01*
X143946035Y-106760433D01*
X143988368Y-106675767D01*
X144073035Y-106591100D01*
X144200035Y-106548767D01*
X144284701Y-106548767D01*
X144411701Y-106591100D01*
X144454035Y-106633433D01*
D14*
X110744095Y-59142381D02*
X110744095Y-59951905D01*
X110791714Y-60047143D01*
X110839333Y-60094762D01*
X110934571Y-60142381D01*
X111125048Y-60142381D01*
X111220286Y-60094762D01*
X111267905Y-60047143D01*
X111315524Y-59951905D01*
X111315524Y-59142381D01*
X111744095Y-59237619D02*
X111791714Y-59190000D01*
X111886952Y-59142381D01*
X112125048Y-59142381D01*
X112220286Y-59190000D01*
X112267905Y-59237619D01*
X112315524Y-59332857D01*
X112315524Y-59428095D01*
X112267905Y-59570952D01*
X111696476Y-60142381D01*
X112315524Y-60142381D01*
X80033905Y-48966381D02*
X80033905Y-47966381D01*
X80414858Y-47966381D01*
X80510096Y-48014000D01*
X80557715Y-48061619D01*
X80605334Y-48156857D01*
X80605334Y-48299714D01*
X80557715Y-48394952D01*
X80510096Y-48442571D01*
X80414858Y-48490190D01*
X80033905Y-48490190D01*
X81557715Y-48966381D02*
X80986286Y-48966381D01*
X81272000Y-48966381D02*
X81272000Y-47966381D01*
X81176762Y-48109238D01*
X81081524Y-48204476D01*
X80986286Y-48252095D01*
X85621905Y-61412381D02*
X85621905Y-60412381D01*
X86002858Y-60412381D01*
X86098096Y-60460000D01*
X86145715Y-60507619D01*
X86193334Y-60602857D01*
X86193334Y-60745714D01*
X86145715Y-60840952D01*
X86098096Y-60888571D01*
X86002858Y-60936190D01*
X85621905Y-60936190D01*
X86574286Y-60507619D02*
X86621905Y-60460000D01*
X86717143Y-60412381D01*
X86955239Y-60412381D01*
X87050477Y-60460000D01*
X87098096Y-60507619D01*
X87145715Y-60602857D01*
X87145715Y-60698095D01*
X87098096Y-60840952D01*
X86526667Y-61412381D01*
X87145715Y-61412381D01*
M02*
