M48
;DRILL file {KiCad 4.0.2+dfsg1-stable} date wto, 5 cze 2018, 19:34:31
;FORMAT={-:-/ absolute / inch / decimal}
FMAT,2
INCH,TZ
T1C0.031
T2C0.032
T3C0.035
T4C0.040
T5C0.045
T6C0.047
T7C0.050
T8C0.051
T9C0.060
%
G90
G05
M72
T1
X3.24Y-3.19
X3.24Y-3.39
X3.24Y-3.59
X3.24Y-3.89
X3.28Y-4.19
X3.28Y-4.29
X3.28Y-4.45
X3.28Y-4.55
X3.33Y-4.24
X3.33Y-4.5
X3.46Y-4.25
X3.46Y-4.43
X3.54Y-3.19
X3.54Y-3.39
X3.54Y-3.59
X3.54Y-3.89
X3.54Y-5.05
X3.68Y-4.67
X3.68Y-4.81
X3.72Y-3.19
X3.72Y-3.39
X3.72Y-3.59
X3.72Y-3.89
X3.76Y-1.99
X3.76Y-2.51
X3.76Y-2.91
X3.86Y-4.25
X3.86Y-4.43
X4.02Y-3.19
X4.02Y-3.39
X4.02Y-3.59
X4.02Y-3.89
X4.08Y-4.81
X4.12Y-2.97
X4.14Y-5.03
X4.16Y-1.99
X4.22Y-2.17
X4.22Y-2.49
X4.22Y-2.59
X4.22Y-2.69
X4.22Y-2.79
X4.26Y-3.17
X4.26Y-3.33
X4.28Y-1.99
X4.3Y-3.51
X4.31Y-3.38
X4.33Y-2.04
X4.36Y-3.33
X4.38Y-1.99
X4.5Y-2.17
X4.52Y-2.49
X4.52Y-2.59
X4.52Y-2.69
X4.52Y-2.79
X4.52Y-2.97
X4.56Y-3.79
X4.66Y-3.17
X4.7Y-2.95
X4.72Y-2.41
X4.72Y-2.81
X4.76Y-1.99
X4.81Y-2.04
X4.86Y-1.99
X4.86Y-2.81
X4.96Y-3.01
X5.04Y-3.11
X5.12Y-2.43
X5.12Y-2.83
X5.18Y-4.37
X5.22Y-2.17
X5.26Y-4.83
X5.32Y-2.43
X5.32Y-2.83
X5.32Y-2.93
X5.48Y-2.85
X5.48Y-4.95
X5.53Y-2.9
X5.56Y-4.35
X5.58Y-2.85
X5.5831Y-2.27
X5.72Y-3.71
X5.74Y-2.57
X5.78Y-2.27
X5.96Y-4.17
X6.04Y-4.39
X6.1231Y-2.27
X6.16Y-4.81
X6.3Y-2.57
X6.32Y-2.27
T2
X4.3184Y-2.17
X4.7Y-3.0484
X4.8616Y-3.01
X4.9584Y-2.81
X5.6416Y-2.57
X6.2016Y-2.57
X6.2584Y-4.81
T3
X3.24Y-4.05
X3.54Y-4.05
X3.72Y-4.05
X3.76Y-2.15
X4.02Y-4.05
X4.06Y-2.15
X4.5Y-3.37
X4.5Y-3.55
X4.8Y-3.37
X4.8Y-3.55
X5.16Y-2.99
X5.16Y-3.29
X5.34Y-3.05
X5.64Y-3.05
T4
X3.7Y-4.95
X3.8Y-4.95
X3.9Y-4.95
X4.Y-4.95
X4.24Y-3.71
X4.24Y-3.81
X4.25Y-4.95
X4.35Y-4.95
X4.45Y-4.95
X4.452Y-3.9
X4.452Y-4.5
X4.55Y-4.95
X4.552Y-3.9
X4.552Y-4.5
X4.65Y-4.95
X4.652Y-3.9
X4.652Y-4.5
X4.75Y-4.95
X4.752Y-3.9
X4.752Y-4.5
X4.85Y-4.95
X4.852Y-3.9
X4.852Y-4.5
X4.95Y-4.95
X4.952Y-3.9
X4.952Y-4.5
X5.05Y-4.95
X5.052Y-3.9
X5.052Y-4.5
X5.15Y-4.95
X5.152Y-3.9
X5.152Y-4.5
X5.25Y-4.95
X5.252Y-3.9
X5.252Y-4.5
X5.35Y-4.95
X5.352Y-3.9
X5.352Y-4.5
X5.452Y-3.9
X5.452Y-4.5
X5.48Y-1.97
X5.48Y-3.63
X5.552Y-3.9
X5.552Y-4.5
X5.58Y-1.97
X5.58Y-3.63
X5.652Y-3.9
X5.652Y-4.5
X5.752Y-3.9
X5.752Y-4.5
X5.852Y-3.9
X5.852Y-4.5
X5.952Y-3.9
X5.952Y-4.5
X6.052Y-3.9
X6.052Y-4.5
X6.152Y-3.9
X6.152Y-4.5
X6.202Y-4.1504
X6.202Y-4.2504
X6.252Y-3.9
X6.252Y-4.5
X6.352Y-3.9
X6.354Y-4.5
T5
X6.Y-1.99
X6.1Y-1.99
X6.2Y-1.99
T6
X3.95Y-2.4
X3.95Y-3.
T7
X3.4Y-2.15
X3.4Y-2.75
T8
X5.6313Y-4.8984
X6.025Y-4.8
X6.025Y-4.9969
T9
X3.275Y-2.025
X3.275Y-2.275
X3.275Y-2.625
X3.275Y-2.875
X3.525Y-2.025
X3.525Y-2.275
X3.525Y-2.625
X3.525Y-2.875
T0
M30
